<svg xmlns="http://www.w3.org/2000/svg" xmlns:xlink="http://www.w3.org/1999/xlink" contentStyleType="text/css" data-diagram-type="DESCRIPTION" height="1358px" preserveAspectRatio="none" style="width:2045px;height:1358px;background:#FFFFFF;" version="1.1" viewBox="0 0 2045 1358" width="2045px" zoomAndPan="magnify"><title>Diagramme de deploiement &#8212; Architecture Kubernetes &amp; Monitoring</title><defs/><g><g class="title" data-source-line="1"><text fill="#000000" font-family="sans-serif" font-size="14" font-weight="bold" lengthAdjust="spacing" textLength="545.6309" x="742.7086" y="22.9951">Diagramme de deploiement &#8212; Architecture Kubernetes &amp; Monitoring</text></g><!--cluster Client Browser--><g class="cluster" data-entity="Client Browser" data-source-line="3" data-uid="ent0002" id="cluster_Client Browser"><polygon fill="none" points="16,53.2969,26,43.2969,461,43.2969,461,363.8969,451,373.8969,16,373.8969,16,53.2969" style="stroke:#181818;stroke-width:1;"/><line style="stroke:#181818;stroke-width:1;" x1="451" x2="461" y1="53.2969" y2="43.2969"/><line style="stroke:#181818;stroke-width:1;" x1="16" x2="451" y1="53.2969" y2="53.2969"/><line style="stroke:#181818;stroke-width:1;" x1="451" x2="451" y1="53.2969" y2="373.8969"/><text fill="#000000" font-family="sans-serif" font-size="14" font-weight="bold" lengthAdjust="spacing" textLength="115.7598" x="176.6201" y="69.292">Client Browser</text></g><!--cluster Kubernetes Cluster--><g class="cluster" data-entity="Kubernetes Cluster" data-source-line="10" data-uid="ent0007" id="cluster_Kubernetes Cluster"><path d="M500.7112,210.7358 C532.2216,144.4576 570.9318,140.1191 615.4227,198.8218 C650.1718,146.7379 687.9569,153.4806 716.9098,204.5256 C743.0665,152.872 794.2834,148.751 823.6822,201.2004 C854.4844,157.001 904.9187,157.9179 926.4518,210.9932 C952.9554,156.1265 998.3221,153.9527 1033.8178,201.5731 C1063.5785,155.7953 1109.159,161.2458 1134.0152,206.9451 C1165.7453,155.0138 1195.802,167.0187 1228.7742,205.6454 C1256.1819,137.8074 1308.7786,138.275 1347.9448,194.3356 C1384.2048,160.0652 1414.6476,160.4848 1436.814,209.3934 C1469.0123,158.329 1502.9271,160.2887 1541.9005,201.6938 C1580.6033,146.4557 1615.5923,150.848 1652.7413,203.2931 C1683.9999,147.1629 1737.2794,154.308 1761.9331,209.7568 C1790.5137,156.3211 1821.687,155.5037 1863.2947,195.6462 C1895.1758,146.6905 1936.3671,149.6653 1961,202.5969 C1974.3358,201.0361 1978.2775,209.4014 1974.3897,220.6296 C2020.3042,251.8912 2015.2053,300.1489 1963.5991,320.9176 C2027.6795,347.004 2028.8444,392.7983 1975.4027,431.4363 C2019.8542,463.4399 2019.9817,493.3051 1980.7104,529.8253 C2030.7444,563.8555 2020.48,606.3913 1974.2983,634.5293 C2021.2897,665.0072 2028.6138,707.2194 1979.2705,742.1481 C2038.0481,779.029 2028.0571,832.6678 1967.2876,857.0851 C2016.2885,889.0451 2015.7661,925.2057 1974.6919,963.4368 C2021.8015,1003.2915 2027.003,1040.0033 1967.4247,1072.7665 C2017.2675,1095.2342 2013.9408,1139.3507 1971.9717,1166.2825 C2025.7139,1209.4873 2015.5051,1252.8156 1954,1277.3769 C1963.2093,1280.5551 1963.1715,1288.7867 1956.0372,1293.9713 C1922.2556,1346.0634 1888.6097,1342.458 1856.4566,1292.384 C1819.4192,1339.7437 1785.757,1334.4872 1761.6203,1280.3321 C1736.091,1338.6355 1686.693,1339.0295 1657.0702,1284.1121 C1626.2454,1328.1186 1582.1724,1336.8885 1551.2085,1284.2645 C1521.0023,1336.2962 1483.4204,1335.6874 1451.915,1285.5268 C1418.1573,1351.5865 1373.6269,1339.0413 1332.8742,1292.9517 C1296.5415,1345.1642 1264.3024,1345.6106 1230.8411,1290.2287 C1199.0318,1327.7936 1170.3951,1336.9695 1138.9324,1289.8524 C1110.6647,1347.3885 1055.4933,1349.1871 1026.6131,1290.4439 C995.3122,1335.1004 959.6331,1329.8645 932.2209,1286.284 C901.1877,1346.2957 862.8037,1339.1139 821.712,1297.1883 C784.4463,1343.4175 736.0051,1338.1326 714.9832,1280.4966 C694.5029,1333.2499 654.6229,1343.7104 618.5345,1295.3907 C569.7902,1338.035 521.2412,1330.6295 493,1270.3769 C498.9615,1267.8622 502.5317,1272.1914 501.9377,1277.6892 C451.8889,1241.4621 454.1683,1205.9391 499.6953,1167.7624 C451.5214,1136.7115 450.7642,1103.6874 493.828,1067.3076 C436.4394,1028.7148 437.5182,990.497 496.222,954.365 C451.9503,911.8754 454.9127,878.1138 507.5393,845.7178 C456.888,819.0556 447.0405,775.2665 499.4376,740.6577 C453.1953,705.0767 461.7019,668.8569 506.0297,639.1582 C458.4288,614.3285 450.605,562.3562 498.8213,531.1328 C454.154,503.0647 450.4683,453.47 495.6827,422.7979 C441.4879,389.1938 448.0043,342.0051 502.7673,315.6021 C445.5062,279.0613 451.0927,234.5859 500,195.5969 C506.8776,200.2557 507.097,205.4539 500.7112,210.7358" fill="none" style="stroke:#181818;stroke-width:1;"/><text fill="#000000" font-family="sans-serif" font-size="14" font-weight="bold" lengthAdjust="spacing" textLength="152.5576" x="1150.7212" y="213.592">Kubernetes Cluster</text></g><!--cluster Frontend Pod--><g class="cluster" data-entity="Frontend Pod" data-source-line="11" data-uid="ent0008" id="cluster_Frontend Pod"><polygon fill="none" points="509,240.5969,519,230.5969,828,230.5969,828,387.8969,818,397.8969,509,397.8969,509,240.5969" style="stroke:#181818;stroke-width:1;"/><line style="stroke:#181818;stroke-width:1;" x1="818" x2="828" y1="240.5969" y2="230.5969"/><line style="stroke:#181818;stroke-width:1;" x1="509" x2="818" y1="240.5969" y2="240.5969"/><line style="stroke:#181818;stroke-width:1;" x1="818" x2="818" y1="240.5969" y2="397.8969"/><text fill="#000000" font-family="sans-serif" font-size="14" font-weight="bold" lengthAdjust="spacing" textLength="107.0029" x="610.9985" y="256.592">Frontend Pod</text></g><!--cluster Nginx Container--><g class="cluster" data-entity="Nginx Container" data-source-line="12" data-uid="ent0009" id="cluster_Nginx Container"><polygon fill="none" points="533,288.5969,543,278.5969,804,278.5969,804,363.8969,794,373.8969,533,373.8969,533,288.5969" style="stroke:#181818;stroke-width:1;"/><line style="stroke:#181818;stroke-width:1;" x1="794" x2="804" y1="288.5969" y2="278.5969"/><line style="stroke:#181818;stroke-width:1;" x1="533" x2="794" y1="288.5969" y2="288.5969"/><line style="stroke:#181818;stroke-width:1;" x1="794" x2="794" y1="288.5969" y2="373.8969"/><text fill="#000000" font-family="sans-serif" font-size="14" font-weight="bold" lengthAdjust="spacing" textLength="127.5723" x="600.7139" y="304.592">Nginx Container</text></g><!--cluster Backend Pod(s)--><g class="cluster" data-entity="Backend Pod.s." data-source-line="18" data-uid="ent0012" id="cluster_Backend Pod.s."><polygon fill="none" points="852,240.5969,862,230.5969,1213,230.5969,1213,908.7869,1203,918.7869,852,918.7869,852,240.5969" style="stroke:#181818;stroke-width:1;"/><line style="stroke:#181818;stroke-width:1;" x1="1203" x2="1213" y1="240.5969" y2="230.5969"/><line style="stroke:#181818;stroke-width:1;" x1="852" x2="1203" y1="240.5969" y2="240.5969"/><line style="stroke:#181818;stroke-width:1;" x1="1203" x2="1203" y1="240.5969" y2="918.7869"/><text fill="#000000" font-family="sans-serif" font-size="14" font-weight="bold" lengthAdjust="spacing" textLength="123.1152" x="966.9424" y="256.592">Backend Pod(s)</text></g><!--cluster Node.js Container--><g class="cluster" data-entity="Node.js Container" data-source-line="19" data-uid="ent0013" id="cluster_Node.js Container"><polygon fill="none" points="876,288.5969,886,278.5969,1189,278.5969,1189,884.7869,1179,894.7869,876,894.7869,876,288.5969" style="stroke:#181818;stroke-width:1;"/><line style="stroke:#181818;stroke-width:1;" x1="1179" x2="1189" y1="288.5969" y2="278.5969"/><line style="stroke:#181818;stroke-width:1;" x1="876" x2="1179" y1="288.5969" y2="288.5969"/><line style="stroke:#181818;stroke-width:1;" x1="1179" x2="1179" y1="288.5969" y2="894.7869"/><text fill="#000000" font-family="sans-serif" font-size="14" font-weight="bold" lengthAdjust="spacing" textLength="141.3398" x="957.8301" y="304.592">Node.js Container</text></g><!--cluster Database Pod--><g class="cluster" data-entity="Database Pod" data-source-line="28" data-uid="ent0019" id="cluster_Database Pod"><polygon fill="none" points="509,961.7869,519,951.7869,1074,951.7869,1074,1251.3769,1064,1261.3769,509,1261.3769,509,961.7869" style="stroke:#181818;stroke-width:1;"/><line style="stroke:#181818;stroke-width:1;" x1="1064" x2="1074" y1="961.7869" y2="951.7869"/><line style="stroke:#181818;stroke-width:1;" x1="509" x2="1064" y1="961.7869" y2="961.7869"/><line style="stroke:#181818;stroke-width:1;" x1="1064" x2="1064" y1="961.7869" y2="1261.3769"/><text fill="#000000" font-family="sans-serif" font-size="14" font-weight="bold" lengthAdjust="spacing" textLength="109.2793" x="732.8604" y="977.782">Database Pod</text></g><!--cluster DB--><g class="cluster" data-entity="DB" data-source-line="29" data-uid="ent0020" id="cluster_DB"><path d="M541,1017.7869 C541,1007.7869 791.5,1007.7869 791.5,1007.7869 C791.5,1007.7869 1042,1007.7869 1042,1017.7869 L1042,1219.3769 C1042,1229.3769 791.5,1229.3769 791.5,1229.3769 C791.5,1229.3769 541,1229.3769 541,1219.3769 L541,1017.7869" fill="none" style="stroke:#181818;stroke-width:1;"/><path d="M541,1017.7869 C541,1027.7869 791.5,1027.7869 791.5,1027.7869 C791.5,1027.7869 1042,1027.7869 1042,1017.7869" fill="none" style="stroke:#181818;stroke-width:1;"/><text fill="#000000" font-family="sans-serif" font-size="14" font-weight="bold" lengthAdjust="spacing" textLength="92.2305" x="745.3848" y="1042.782">PostgreSQL</text></g><!--cluster Cache Pod--><g class="cluster" data-entity="Cache Pod" data-source-line="39" data-uid="ent0027" id="cluster_Cache Pod"><polygon fill="none" points="1608,456.8969,1618,446.8969,1945,446.8969,1945,614.1869,1935,624.1869,1608,624.1869,1608,456.8969" style="stroke:#181818;stroke-width:1;"/><line style="stroke:#181818;stroke-width:1;" x1="1935" x2="1945" y1="456.8969" y2="446.8969"/><line style="stroke:#181818;stroke-width:1;" x1="1608" x2="1935" y1="456.8969" y2="456.8969"/><line style="stroke:#181818;stroke-width:1;" x1="1935" x2="1935" y1="456.8969" y2="624.1869"/><text fill="#000000" font-family="sans-serif" font-size="14" font-weight="bold" lengthAdjust="spacing" textLength="82.2568" x="1731.3716" y="472.892">Cache Pod</text></g><!--cluster Redis--><g class="cluster" data-entity="Redis" data-source-line="40" data-uid="ent0028" id="cluster_Redis"><path d="M1632,504.8969 C1632,494.8969 1776.5,494.8969 1776.5,494.8969 C1776.5,494.8969 1921,494.8969 1921,504.8969 L1921,590.1869 C1921,600.1869 1776.5,600.1869 1776.5,600.1869 C1776.5,600.1869 1632,600.1869 1632,590.1869 L1632,504.8969" fill="none" style="stroke:#181818;stroke-width:1;"/><path d="M1632,504.8969 C1632,514.8969 1776.5,514.8969 1776.5,514.8969 C1776.5,514.8969 1921,514.8969 1921,504.8969" fill="none" style="stroke:#181818;stroke-width:1;"/><text fill="#000000" font-family="sans-serif" font-size="14" font-weight="bold" lengthAdjust="spacing" textLength="43.4287" x="1754.7856" y="529.892">Redis</text></g><!--cluster Monitoring Pod--><g class="cluster" data-entity="Monitoring Pod" data-source-line="46" data-uid="ent0031" id="cluster_Monitoring Pod"><polygon fill="none" points="1237,466.8969,1247,456.8969,1584,456.8969,1584,782.4869,1574,792.4869,1237,792.4869,1237,466.8969" style="stroke:#181818;stroke-width:1;"/><line style="stroke:#181818;stroke-width:1;" x1="1574" x2="1584" y1="466.8969" y2="456.8969"/><line style="stroke:#181818;stroke-width:1;" x1="1237" x2="1574" y1="466.8969" y2="466.8969"/><line style="stroke:#181818;stroke-width:1;" x1="1574" x2="1574" y1="466.8969" y2="792.4869"/><text fill="#000000" font-family="sans-serif" font-size="14" font-weight="bold" lengthAdjust="spacing" textLength="121.0918" x="1345.9541" y="482.892">Monitoring Pod</text></g><!--cluster Prometheus Container--><g class="cluster" data-entity="Prometheus Container" data-source-line="47" data-uid="ent0032" id="cluster_Prometheus Container"><polygon fill="none" points="1261,514.8969,1271,504.8969,1514,504.8969,1514,590.1869,1504,600.1869,1261,600.1869,1261,514.8969" style="stroke:#181818;stroke-width:1;"/><line style="stroke:#181818;stroke-width:1;" x1="1504" x2="1514" y1="514.8969" y2="504.8969"/><line style="stroke:#181818;stroke-width:1;" x1="1261" x2="1504" y1="514.8969" y2="514.8969"/><line style="stroke:#181818;stroke-width:1;" x1="1504" x2="1504" y1="514.8969" y2="600.1869"/><text fill="#000000" font-family="sans-serif" font-size="14" font-weight="bold" lengthAdjust="spacing" textLength="177.3584" x="1294.8208" y="530.892">Prometheus Container</text></g><!--cluster Grafana Container--><g class="cluster" data-entity="Grafana Container" data-source-line="50" data-uid="ent0034" id="cluster_Grafana Container"><polygon fill="none" points="1261,683.1869,1271,673.1869,1560,673.1869,1560,758.4869,1550,768.4869,1261,768.4869,1261,683.1869" style="stroke:#181818;stroke-width:1;"/><line style="stroke:#181818;stroke-width:1;" x1="1550" x2="1560" y1="683.1869" y2="673.1869"/><line style="stroke:#181818;stroke-width:1;" x1="1261" x2="1550" y1="683.1869" y2="683.1869"/><line style="stroke:#181818;stroke-width:1;" x1="1550" x2="1550" y1="683.1869" y2="768.4869"/><text fill="#000000" font-family="sans-serif" font-size="14" font-weight="bold" lengthAdjust="spacing" textLength="144.833" x="1334.0835" y="699.182">Grafana Container</text></g><!--cluster Load Testing Environment--><g class="cluster" data-entity="Load Testing Environment" data-source-line="57" data-uid="ent0037" id="cluster_Load Testing Environment"><polygon fill="none" points="819,53.2969,829,43.2969,1102,43.2969,1102,128.5969,1092,138.5969,819,138.5969,819,53.2969" style="stroke:#181818;stroke-width:1;"/><line style="stroke:#181818;stroke-width:1;" x1="1092" x2="1102" y1="53.2969" y2="43.2969"/><line style="stroke:#181818;stroke-width:1;" x1="819" x2="1092" y1="53.2969" y2="53.2969"/><line style="stroke:#181818;stroke-width:1;" x1="1092" x2="1092" y1="53.2969" y2="138.5969"/><text fill="#000000" font-family="sans-serif" font-size="14" font-weight="bold" lengthAdjust="spacing" textLength="207.2998" x="852.8501" y="69.292">Load Testing Environment</text></g><!--entity ReactApp--><g class="entity" data-entity="ReactApp" data-source-line="4" data-uid="ent0003" id="entity_ReactApp"><rect fill="#F1F1F1" height="39.2969" rx="2.5" ry="2.5" style="stroke:#181818;stroke-width:0.5;" width="101.9072" x="343.05" y="83.2969"/><polygon fill="#F1F1F1" points="427.9572,88.2969,427.9572,102.2969,439.9572,102.2969,439.9572,94.2969,433.9572,88.2969,427.9572,88.2969" style="stroke:#181818;stroke-width:0.5;"/><line style="stroke:#181818;stroke-width:0.5;" x1="433.9572" x2="433.9572" y1="88.2969" y2="94.2969"/><line style="stroke:#181818;stroke-width:0.5;" x1="439.9572" x2="433.9572" y1="94.2969" y2="94.2969"/><text fill="#000000" font-family="sans-serif" font-size="14" lengthAdjust="spacing" textLength="71.9072" x="353.05" y="109.292">React App</text></g><!--entity Cart Context--><g class="entity" data-entity="Cart Context" data-source-line="5" data-uid="ent0004" id="entity_Cart Context"><rect fill="#F1F1F1" height="39.2969" rx="2.5" ry="2.5" style="stroke:#181818;stroke-width:0.5;" width="119.1406" x="32.43" y="83.2969"/><polygon fill="#F1F1F1" points="134.5706,88.2969,134.5706,102.2969,146.5706,102.2969,146.5706,94.2969,140.5706,88.2969,134.5706,88.2969" style="stroke:#181818;stroke-width:0.5;"/><line style="stroke:#181818;stroke-width:0.5;" x1="140.5706" x2="140.5706" y1="88.2969" y2="94.2969"/><line style="stroke:#181818;stroke-width:0.5;" x1="146.5706" x2="140.5706" y1="94.2969" y2="94.2969"/><text fill="#000000" font-family="sans-serif" font-size="14" lengthAdjust="spacing" textLength="89.1406" x="42.43" y="109.292">Cart Context</text></g><!--entity User Context--><g class="entity" data-entity="User Context" data-source-line="6" data-uid="ent0005" id="entity_User Context"><rect fill="#F1F1F1" height="39.2969" rx="2.5" ry="2.5" style="stroke:#181818;stroke-width:0.5;" width="121.4512" x="186.27" y="83.2969"/><polygon fill="#F1F1F1" points="290.7212,88.2969,290.7212,102.2969,302.7212,102.2969,302.7212,94.2969,296.7212,88.2969,290.7212,88.2969" style="stroke:#181818;stroke-width:0.5;"/><line style="stroke:#181818;stroke-width:0.5;" x1="296.7212" x2="296.7212" y1="88.2969" y2="94.2969"/><line style="stroke:#181818;stroke-width:0.5;" x1="302.7212" x2="296.7212" y1="94.2969" y2="94.2969"/><text fill="#000000" font-family="sans-serif" font-size="14" lengthAdjust="spacing" textLength="91.4512" x="196.27" y="109.292">User Context</text></g><!--entity API Client--><g class="entity" data-entity="API Client" data-source-line="7" data-uid="ent0006" id="entity_API Client"><rect fill="#F1F1F1" height="39.2969" rx="2.5" ry="2.5" style="stroke:#181818;stroke-width:0.5;" width="97.1289" x="43.44" y="318.5969"/><polygon fill="#F1F1F1" points="123.5689,323.5969,123.5689,337.5969,135.5689,337.5969,135.5689,329.5969,129.5689,323.5969,123.5689,323.5969" style="stroke:#181818;stroke-width:0.5;"/><line style="stroke:#181818;stroke-width:0.5;" x1="129.5689" x2="129.5689" y1="323.5969" y2="329.5969"/><line style="stroke:#181818;stroke-width:0.5;" x1="135.5689" x2="129.5689" y1="329.5969" y2="329.5969"/><text fill="#000000" font-family="sans-serif" font-size="14" lengthAdjust="spacing" textLength="67.1289" x="53.44" y="344.592">API Client</text></g><!--entity Static Files--><g class="entity" data-entity="Static Files" data-source-line="13" data-uid="ent0010" id="entity_Static Files"><rect fill="#F1F1F1" height="39.2969" rx="2.5" ry="2.5" style="stroke:#181818;stroke-width:0.5;" width="106.2207" x="548.89" y="318.5969"/><polygon fill="#F1F1F1" points="638.1107,323.5969,638.1107,337.5969,650.1107,337.5969,650.1107,329.5969,644.1107,323.5969,638.1107,323.5969" style="stroke:#181818;stroke-width:0.5;"/><line style="stroke:#181818;stroke-width:0.5;" x1="644.1107" x2="644.1107" y1="323.5969" y2="329.5969"/><line style="stroke:#181818;stroke-width:0.5;" x1="650.1107" x2="644.1107" y1="329.5969" y2="329.5969"/><text fill="#000000" font-family="sans-serif" font-size="14" lengthAdjust="spacing" textLength="76.2207" x="558.89" y="344.592">Static Files</text></g><!--entity Vite Build--><g class="entity" data-entity="Vite Build" data-source-line="14" data-uid="ent0011" id="entity_Vite Build"><rect fill="#F1F1F1" height="39.2969" rx="2.5" ry="2.5" style="stroke:#181818;stroke-width:0.5;" width="97.1631" x="690.42" y="318.5969"/><polygon fill="#F1F1F1" points="770.5831,323.5969,770.5831,337.5969,782.5831,337.5969,782.5831,329.5969,776.5831,323.5969,770.5831,323.5969" style="stroke:#181818;stroke-width:0.5;"/><line style="stroke:#181818;stroke-width:0.5;" x1="776.5831" x2="776.5831" y1="323.5969" y2="329.5969"/><line style="stroke:#181818;stroke-width:0.5;" x1="782.5831" x2="776.5831" y1="329.5969" y2="329.5969"/><text fill="#000000" font-family="sans-serif" font-size="14" lengthAdjust="spacing" textLength="67.1631" x="700.42" y="344.592">Vite Build</text></g><!--entity Express Server--><g class="entity" data-entity="Express Server" data-source-line="20" data-uid="ent0014" id="entity_Express Server"><rect fill="#F1F1F1" height="39.2969" rx="2.5" ry="2.5" style="stroke:#181818;stroke-width:0.5;" width="135.335" x="892.33" y="318.5969"/><polygon fill="#F1F1F1" points="1010.665,323.5969,1010.665,337.5969,1022.665,337.5969,1022.665,329.5969,1016.665,323.5969,1010.665,323.5969" style="stroke:#181818;stroke-width:0.5;"/><line style="stroke:#181818;stroke-width:0.5;" x1="1016.665" x2="1016.665" y1="323.5969" y2="329.5969"/><line style="stroke:#181818;stroke-width:0.5;" x1="1022.665" x2="1016.665" y1="329.5969" y2="329.5969"/><text fill="#000000" font-family="sans-serif" font-size="14" lengthAdjust="spacing" textLength="105.335" x="902.33" y="344.592">Express Server</text></g><!--entity Controllers--><g class="entity" data-entity="Controllers" data-source-line="21" data-uid="ent0015" id="entity_Controllers"><rect fill="#F1F1F1" height="39.2969" rx="2.5" ry="2.5" style="stroke:#181818;stroke-width:0.5;" width="106.4668" x="908.77" y="544.8969"/><polygon fill="#F1F1F1" points="998.2368,549.8969,998.2368,563.8969,1010.2368,563.8969,1010.2368,555.8969,1004.2368,549.8969,998.2368,549.8969" style="stroke:#181818;stroke-width:0.5;"/><line style="stroke:#181818;stroke-width:0.5;" x1="1004.2368" x2="1004.2368" y1="549.8969" y2="555.8969"/><line style="stroke:#181818;stroke-width:0.5;" x1="1010.2368" x2="1004.2368" y1="555.8969" y2="555.8969"/><text fill="#000000" font-family="sans-serif" font-size="14" lengthAdjust="spacing" textLength="76.4668" x="918.77" y="570.892">Controllers</text></g><!--entity Services--><g class="entity" data-entity="Services" data-source-line="22" data-uid="ent0016" id="entity_Services"><rect fill="#F1F1F1" height="39.2969" rx="2.5" ry="2.5" style="stroke:#181818;stroke-width:0.5;" width="89.0352" x="937.48" y="713.1869"/><polygon fill="#F1F1F1" points="1009.5152,718.1869,1009.5152,732.1869,1021.5152,732.1869,1021.5152,724.1869,1015.5152,718.1869,1009.5152,718.1869" style="stroke:#181818;stroke-width:0.5;"/><line style="stroke:#181818;stroke-width:0.5;" x1="1015.5152" x2="1015.5152" y1="718.1869" y2="724.1869"/><line style="stroke:#181818;stroke-width:0.5;" x1="1021.5152" x2="1015.5152" y1="724.1869" y2="724.1869"/><text fill="#000000" font-family="sans-serif" font-size="14" lengthAdjust="spacing" textLength="59.0352" x="947.48" y="739.182">Services</text></g><!--entity Middleware--><g class="entity" data-entity="Middleware" data-source-line="23" data-uid="ent0017" id="entity_Middleware"><rect fill="#F1F1F1" height="39.2969" rx="2.5" ry="2.5" style="stroke:#181818;stroke-width:0.5;" width="110.6436" x="1062.68" y="318.5969"/><polygon fill="#F1F1F1" points="1156.3236,323.5969,1156.3236,337.5969,1168.3236,337.5969,1168.3236,329.5969,1162.3236,323.5969,1156.3236,323.5969" style="stroke:#181818;stroke-width:0.5;"/><line style="stroke:#181818;stroke-width:0.5;" x1="1162.3236" x2="1162.3236" y1="323.5969" y2="329.5969"/><line style="stroke:#181818;stroke-width:0.5;" x1="1168.3236" x2="1162.3236" y1="329.5969" y2="329.5969"/><text fill="#000000" font-family="sans-serif" font-size="14" lengthAdjust="spacing" textLength="80.6436" x="1072.68" y="344.592">Middleware</text></g><!--entity Prisma Client--><g class="entity" data-entity="Prisma Client" data-source-line="24" data-uid="ent0018" id="entity_Prisma Client"><rect fill="#F1F1F1" height="39.2969" rx="2.5" ry="2.5" style="stroke:#181818;stroke-width:0.5;" width="122.5791" x="962.71" y="839.4869"/><polygon fill="#F1F1F1" points="1068.2891,844.4869,1068.2891,858.4869,1080.2891,858.4869,1080.2891,850.4869,1074.2891,844.4869,1068.2891,844.4869" style="stroke:#181818;stroke-width:0.5;"/><line style="stroke:#181818;stroke-width:0.5;" x1="1074.2891" x2="1074.2891" y1="844.4869" y2="850.4869"/><line style="stroke:#181818;stroke-width:0.5;" x1="1080.2891" x2="1074.2891" y1="850.4869" y2="850.4869"/><text fill="#000000" font-family="sans-serif" font-size="14" lengthAdjust="spacing" textLength="92.5791" x="972.71" y="865.482">Prisma Client</text></g><!--entity Store Tables--><g class="entity" data-entity="Store Tables" data-source-line="30" data-uid="ent0021" id="entity_Store Tables"><rect fill="#F1F1F1" height="39.2969" rx="2.5" ry="2.5" style="stroke:#181818;stroke-width:0.5;" width="117.5752" x="565.21" y="1065.7869"/><polygon fill="#F1F1F1" points="665.7852,1070.7869,665.7852,1084.7869,677.7852,1084.7869,677.7852,1076.7869,671.7852,1070.7869,665.7852,1070.7869" style="stroke:#181818;stroke-width:0.5;"/><line style="stroke:#181818;stroke-width:0.5;" x1="671.7852" x2="671.7852" y1="1070.7869" y2="1076.7869"/><line style="stroke:#181818;stroke-width:0.5;" x1="677.7852" x2="671.7852" y1="1076.7869" y2="1076.7869"/><text fill="#000000" font-family="sans-serif" font-size="14" lengthAdjust="spacing" textLength="87.5752" x="575.21" y="1091.782">Store Tables</text></g><!--entity Product Tables--><g class="entity" data-entity="Product Tables" data-source-line="31" data-uid="ent0022" id="entity_Product Tables"><rect fill="#F1F1F1" height="39.2969" rx="2.5" ry="2.5" style="stroke:#181818;stroke-width:0.5;" width="133.9746" x="718.01" y="1065.7869"/><polygon fill="#F1F1F1" points="834.9846,1070.7869,834.9846,1084.7869,846.9846,1084.7869,846.9846,1076.7869,840.9846,1070.7869,834.9846,1070.7869" style="stroke:#181818;stroke-width:0.5;"/><line style="stroke:#181818;stroke-width:0.5;" x1="840.9846" x2="840.9846" y1="1070.7869" y2="1076.7869"/><line style="stroke:#181818;stroke-width:0.5;" x1="846.9846" x2="840.9846" y1="1076.7869" y2="1076.7869"/><text fill="#000000" font-family="sans-serif" font-size="14" lengthAdjust="spacing" textLength="103.9746" x="728.01" y="1091.782">Product Tables</text></g><!--entity User Tables--><g class="entity" data-entity="User Tables" data-source-line="32" data-uid="ent0023" id="entity_User Tables"><rect fill="#F1F1F1" height="39.2969" rx="2.5" ry="2.5" style="stroke:#181818;stroke-width:0.5;" width="112.1748" x="886.91" y="1065.7869"/><polygon fill="#F1F1F1" points="982.0848,1070.7869,982.0848,1084.7869,994.0848,1084.7869,994.0848,1076.7869,988.0848,1070.7869,982.0848,1070.7869" style="stroke:#181818;stroke-width:0.5;"/><line style="stroke:#181818;stroke-width:0.5;" x1="988.0848" x2="988.0848" y1="1070.7869" y2="1076.7869"/><line style="stroke:#181818;stroke-width:0.5;" x1="994.0848" x2="988.0848" y1="1076.7869" y2="1076.7869"/><text fill="#000000" font-family="sans-serif" font-size="14" lengthAdjust="spacing" textLength="82.1748" x="896.91" y="1091.782">User Tables</text></g><!--entity Stock Tables--><g class="entity" data-entity="Stock Tables" data-source-line="33" data-uid="ent0024" id="entity_Stock Tables"><rect fill="#F1F1F1" height="39.2969" rx="2.5" ry="2.5" style="stroke:#181818;stroke-width:0.5;" width="119.0107" x="565.49" y="1166.0769"/><polygon fill="#F1F1F1" points="667.5007,1171.0769,667.5007,1185.0769,679.5007,1185.0769,679.5007,1177.0769,673.5007,1171.0769,667.5007,1171.0769" style="stroke:#181818;stroke-width:0.5;"/><line style="stroke:#181818;stroke-width:0.5;" x1="673.5007" x2="673.5007" y1="1171.0769" y2="1177.0769"/><line style="stroke:#181818;stroke-width:0.5;" x1="679.5007" x2="673.5007" y1="1177.0769" y2="1177.0769"/><text fill="#000000" font-family="sans-serif" font-size="14" lengthAdjust="spacing" textLength="89.0107" x="575.49" y="1192.072">Stock Tables</text></g><!--entity Sale Tables--><g class="entity" data-entity="Sale Tables" data-source-line="34" data-uid="ent0025" id="entity_Sale Tables"><rect fill="#F1F1F1" height="39.2969" rx="2.5" ry="2.5" style="stroke:#181818;stroke-width:0.5;" width="110.2334" x="719.88" y="1166.0769"/><polygon fill="#F1F1F1" points="813.1134,1171.0769,813.1134,1185.0769,825.1134,1185.0769,825.1134,1177.0769,819.1134,1171.0769,813.1134,1171.0769" style="stroke:#181818;stroke-width:0.5;"/><line style="stroke:#181818;stroke-width:0.5;" x1="819.1134" x2="819.1134" y1="1171.0769" y2="1177.0769"/><line style="stroke:#181818;stroke-width:0.5;" x1="825.1134" x2="819.1134" y1="1177.0769" y2="1177.0769"/><text fill="#000000" font-family="sans-serif" font-size="14" lengthAdjust="spacing" textLength="80.2334" x="729.88" y="1192.072">Sale Tables</text></g><!--entity Refund Tables--><g class="entity" data-entity="Refund Tables" data-source-line="35" data-uid="ent0026" id="entity_Refund Tables"><rect fill="#F1F1F1" height="39.2969" rx="2.5" ry="2.5" style="stroke:#181818;stroke-width:0.5;" width="130.167" x="864.92" y="1166.0769"/><polygon fill="#F1F1F1" points="978.087,1171.0769,978.087,1185.0769,990.087,1185.0769,990.087,1177.0769,984.087,1171.0769,978.087,1171.0769" style="stroke:#181818;stroke-width:0.5;"/><line style="stroke:#181818;stroke-width:0.5;" x1="984.087" x2="984.087" y1="1171.0769" y2="1177.0769"/><line style="stroke:#181818;stroke-width:0.5;" x1="990.087" x2="984.087" y1="1177.0769" y2="1177.0769"/><text fill="#000000" font-family="sans-serif" font-size="14" lengthAdjust="spacing" textLength="100.167" x="874.92" y="1192.072">Refund Tables</text></g><!--entity API Cache--><g class="entity" data-entity="API Cache" data-source-line="41" data-uid="ent0029" id="entity_API Cache"><rect fill="#F1F1F1" height="39.2969" rx="2.5" ry="2.5" style="stroke:#181818;stroke-width:0.5;" width="100.1367" x="1647.93" y="544.8969"/><polygon fill="#F1F1F1" points="1731.0667,549.8969,1731.0667,563.8969,1743.0667,563.8969,1743.0667,555.8969,1737.0667,549.8969,1731.0667,549.8969" style="stroke:#181818;stroke-width:0.5;"/><line style="stroke:#181818;stroke-width:0.5;" x1="1737.0667" x2="1737.0667" y1="549.8969" y2="555.8969"/><line style="stroke:#181818;stroke-width:0.5;" x1="1743.0667" x2="1737.0667" y1="555.8969" y2="555.8969"/><text fill="#000000" font-family="sans-serif" font-size="14" lengthAdjust="spacing" textLength="70.1367" x="1657.93" y="570.892">API Cache</text></g><!--entity Session Data--><g class="entity" data-entity="Session Data" data-source-line="42" data-uid="ent0030" id="entity_Session Data"><rect fill="#F1F1F1" height="39.2969" rx="2.5" ry="2.5" style="stroke:#181818;stroke-width:0.5;" width="121.2939" x="1783.35" y="544.8969"/><polygon fill="#F1F1F1" points="1887.6439,549.8969,1887.6439,563.8969,1899.6439,563.8969,1899.6439,555.8969,1893.6439,549.8969,1887.6439,549.8969" style="stroke:#181818;stroke-width:0.5;"/><line style="stroke:#181818;stroke-width:0.5;" x1="1893.6439" x2="1893.6439" y1="549.8969" y2="555.8969"/><line style="stroke:#181818;stroke-width:0.5;" x1="1899.6439" x2="1893.6439" y1="555.8969" y2="555.8969"/><text fill="#000000" font-family="sans-serif" font-size="14" lengthAdjust="spacing" textLength="91.2939" x="1793.35" y="570.892">Session Data</text></g><!--entity Metrics Collection--><g class="entity" data-entity="Metrics Collection" data-source-line="48" data-uid="ent0033" id="entity_Metrics Collection"><rect fill="#F1F1F1" height="39.2969" rx="2.5" ry="2.5" style="stroke:#181818;stroke-width:0.5;" width="154.5166" x="1276.74" y="544.8969"/><polygon fill="#F1F1F1" points="1414.2566,549.8969,1414.2566,563.8969,1426.2566,563.8969,1426.2566,555.8969,1420.2566,549.8969,1414.2566,549.8969" style="stroke:#181818;stroke-width:0.5;"/><line style="stroke:#181818;stroke-width:0.5;" x1="1420.2566" x2="1420.2566" y1="549.8969" y2="555.8969"/><line style="stroke:#181818;stroke-width:0.5;" x1="1426.2566" x2="1420.2566" y1="555.8969" y2="555.8969"/><text fill="#000000" font-family="sans-serif" font-size="14" lengthAdjust="spacing" textLength="124.5166" x="1286.74" y="570.892">Metrics Collection</text></g><!--entity Dashboards--><g class="entity" data-entity="Dashboards" data-source-line="51" data-uid="ent0035" id="entity_Dashboards"><rect fill="#F1F1F1" height="39.2969" rx="2.5" ry="2.5" style="stroke:#181818;stroke-width:0.5;" width="113.4941" x="1277.25" y="713.1869"/><polygon fill="#F1F1F1" points="1373.7441,718.1869,1373.7441,732.1869,1385.7441,732.1869,1385.7441,724.1869,1379.7441,718.1869,1373.7441,718.1869" style="stroke:#181818;stroke-width:0.5;"/><line style="stroke:#181818;stroke-width:0.5;" x1="1379.7441" x2="1379.7441" y1="718.1869" y2="724.1869"/><line style="stroke:#181818;stroke-width:0.5;" x1="1385.7441" x2="1379.7441" y1="724.1869" y2="724.1869"/><text fill="#000000" font-family="sans-serif" font-size="14" lengthAdjust="spacing" textLength="83.4941" x="1287.25" y="739.182">Dashboards</text></g><!--entity Visualization--><g class="entity" data-entity="Visualization" data-source-line="52" data-uid="ent0036" id="entity_Visualization"><rect fill="#F1F1F1" height="39.2969" rx="2.5" ry="2.5" style="stroke:#181818;stroke-width:0.5;" width="118.7373" x="1425.63" y="713.1869"/><polygon fill="#F1F1F1" points="1527.3673,718.1869,1527.3673,732.1869,1539.3673,732.1869,1539.3673,724.1869,1533.3673,718.1869,1527.3673,718.1869" style="stroke:#181818;stroke-width:0.5;"/><line style="stroke:#181818;stroke-width:0.5;" x1="1533.3673" x2="1533.3673" y1="718.1869" y2="724.1869"/><line style="stroke:#181818;stroke-width:0.5;" x1="1539.3673" x2="1533.3673" y1="724.1869" y2="724.1869"/><text fill="#000000" font-family="sans-serif" font-size="14" lengthAdjust="spacing" textLength="88.7373" x="1435.63" y="739.182">Visualization</text></g><!--entity K6 Tests--><g class="entity" data-entity="K6 Tests" data-source-line="58" data-uid="ent0038" id="entity_K6 Tests"><rect fill="#F1F1F1" height="39.2969" rx="2.5" ry="2.5" style="stroke:#181818;stroke-width:0.5;" width="89.7803" x="915.11" y="83.2969"/><polygon fill="#F1F1F1" points="987.8903,88.2969,987.8903,102.2969,999.8903,102.2969,999.8903,94.2969,993.8903,88.2969,987.8903,88.2969" style="stroke:#181818;stroke-width:0.5;"/><line style="stroke:#181818;stroke-width:0.5;" x1="993.8903" x2="993.8903" y1="88.2969" y2="94.2969"/><line style="stroke:#181818;stroke-width:0.5;" x1="999.8903" x2="993.8903" y1="94.2969" y2="94.2969"/><text fill="#000000" font-family="sans-serif" font-size="14" lengthAdjust="spacing" textLength="59.7803" x="925.11" y="109.292">K6 Tests</text></g><!--link ReactApp to Express Server--><g class="link" data-entity-1="ReactApp" data-entity-2="Express Server" data-source-line="62" data-uid="lnk39" id="link_ReactApp_Express Server"><path d="M445.44,103.7669 C526.41,105.5169 686.43,117.4069 804,179.5969 C868.84,213.8969 920.1129,279.5359 943.8729,313.3859" fill="none" id="ReactApp-to-Express Server" style="stroke:#181818;stroke-width:1;"/><polygon fill="#181818" points="947.32,318.2969,945.4233,308.6324,944.4474,314.2044,938.8754,313.2285,947.32,318.2969" style="stroke:#181818;stroke-width:1;"/><text fill="#000000" font-family="sans-serif" font-size="13" lengthAdjust="spacing" textLength="104.2666" x="784" y="167.6638">HTTPS/REST API</text></g><!--link Express Server to Controllers--><g class="link" data-entity-1="Express Server" data-entity-2="Controllers" data-source-line="63" data-uid="lnk40" id="link_Express Server_Controllers"><path d="M960.17,358.3669 C960.55,400.7469 961.3961,496.1371 961.7761,538.4671" fill="none" id="Express Server-to-Controllers" style="stroke:#181818;stroke-width:1;"/><polygon fill="#181818" points="961.83,544.4669,965.749,535.4313,961.7851,539.4671,957.7494,535.5031,961.83,544.4669" style="stroke:#181818;stroke-width:1;"/></g><!--link Controllers to Services--><g class="link" data-entity-1="Controllers" data-entity-2="Services" data-source-line="64" data-uid="lnk41" id="link_Controllers_Services"><path d="M964.29,584.6169 C968.14,616.6069 975.1335,674.7598 978.9835,706.7698" fill="none" id="Controllers-to-Services" style="stroke:#181818;stroke-width:1;"/><polygon fill="#181818" points="979.7,712.7269,982.5966,703.3136,979.1029,707.7627,974.6539,704.2689,979.7,712.7269" style="stroke:#181818;stroke-width:1;"/></g><!--link Services to Prisma Client--><g class="link" data-entity-1="Services" data-entity-2="Prisma Client" data-source-line="65" data-uid="lnk42" id="link_Services_Prisma Client"><path d="M988.38,752.7169 C996.27,776.0769 1007.7194,809.9526 1015.6394,833.3926" fill="none" id="Services-to-Prisma Client" style="stroke:#181818;stroke-width:1;"/><polygon fill="#181818" points="1017.56,839.0769,1018.4686,829.27,1015.9595,834.34,1010.8895,831.8309,1017.56,839.0769" style="stroke:#181818;stroke-width:1;"/></g><!--link Prisma Client to DB--><g class="link" data-entity-1="Prisma Client" data-entity-2="DB" data-source-line="66" data-uid="lnk43" id="link_Prisma Client_DB"><path d="M1024.85,879.2569 C1026.04,905.9519 1028.275,956.0719 1030.2388,1000.0919 C1030.3001,1001.4675 1030.3612,1002.8372 1030.422,1004.2 C1030.4524,1004.8814 1030.4827,1005.5611 1030.513,1006.2389 C1030.5281,1006.5779 1030.2758,1000.9223 1030.2909,1001.2603" fill="none" id="Prisma Client-to-DB" style="stroke:#181818;stroke-width:1;"/><polygon fill="#181818" points="1030.5583,1007.2543,1034.1532,998.085,1030.3354,1002.2593,1026.1611,998.4416,1030.5583,1007.2543" style="stroke:#181818;stroke-width:1;"/></g><!--link Middleware to API Cache--><g class="link" data-entity-1="Middleware" data-entity-2="API Cache" data-source-line="67" data-uid="lnk44" id="link_Middleware_API Cache"><path d="M1173.68,353.0669 C1239.89,370.1969 1353.24,401.7169 1447,438.8969 C1527.28,470.7269 1611.6487,515.4344 1659.0687,541.6444" fill="none" id="Middleware-to-API Cache" style="stroke:#181818;stroke-width:1;"/><polygon fill="#181818" points="1664.32,544.5469,1658.3781,536.6923,1659.944,542.1281,1654.5081,543.694,1664.32,544.5469" style="stroke:#181818;stroke-width:1;"/><text fill="#000000" font-family="sans-serif" font-size="13" lengthAdjust="spacing" textLength="50.6035" x="1422" y="426.9638">caching</text></g><!--link Express Server to Metrics Collection--><g class="link" data-entity-1="Express Server" data-entity-2="Metrics Collection" data-source-line="68" data-uid="lnk45" id="link_Express Server_Metrics Collection"><path d="M978.92,358.1369 C995.12,373.2569 1019.78,393.8669 1045,405.8969 C1104.26,434.1669 1129.49,411.1569 1189,438.8969 C1247.9,466.3469 1301.6362,513.1584 1330.6262,540.6484" fill="none" id="Express Server-to-Metrics Collection" style="stroke:#181818;stroke-width:1;"/><polygon fill="#181818" points="1334.98,544.7769,1331.2017,535.6816,1331.3518,541.3365,1325.697,541.4866,1334.98,544.7769" style="stroke:#181818;stroke-width:1;"/><text fill="#000000" font-family="sans-serif" font-size="13" lengthAdjust="spacing" textLength="48.6357" x="1166" y="426.9638">metrics</text></g><!--link Metrics Collection to Dashboards--><g class="link" data-entity-1="Metrics Collection" data-entity-2="Dashboards" data-source-line="69" data-uid="lnk46" id="link_Metrics Collection_Dashboards"><path d="M1351.71,584.6169 C1347.86,616.6069 1340.8665,674.7598 1337.0165,706.7698" fill="none" id="Metrics Collection-to-Dashboards" style="stroke:#181818;stroke-width:1;"/><polygon fill="#181818" points="1336.3,712.7269,1341.3461,704.2689,1336.8971,707.7627,1333.4034,703.3136,1336.3,712.7269" style="stroke:#181818;stroke-width:1;"/><text fill="#000000" font-family="sans-serif" font-size="13" lengthAdjust="spacing" textLength="29.2817" x="1345" y="653.2538">data</text></g><!--link K6 Tests to Express Server--><g class="link" data-entity-1="K6 Tests" data-entity-2="Express Server" data-source-line="70" data-uid="lnk47" id="link_K6 Tests_Express Server"><path d="M960,123.0369 C960,166.8969 960,268.4169 960,312.2169" fill="none" id="K6 Tests-to-Express Server" style="stroke:#181818;stroke-width:1;"/><polygon fill="#181818" points="960,318.2169,964,309.2169,960,313.2169,956,309.2169,960,318.2169" style="stroke:#181818;stroke-width:1;"/><text fill="#000000" font-family="sans-serif" font-size="13" lengthAdjust="spacing" textLength="76.9844" x="961" y="167.6638">load testing</text></g><!--SRC=[XLJDZjCm4BxxAKOvy7DOk77WWDI_1RHR5DekzwazRSqwTcKxknMe4W_14_8as37Pj8spL6rgvvkPR_pDZBtqYc0gSMkngWX4_EwLaLIHzl3drsyOMRwJdhYlBS5DlIQhoPE35p0tMdfZfTuofarmBIPAHhUnDO-ER04_6G1QBpV8FHGBYd-Z_Ru0TD3imkRCP1AMC37Qqy4NPyXT29X7HkLdICG5EpB6bQa552UPJbJjV9jEIlJQnaXQG6b4UjyYNxPI7neYbBfrYf-ESEdHImxNKf4hUkYt81QCQwb4meui_PwunyZl_r6_SgylsCFppNVtFF_iiBVa72p9FWIB7XwThL6AR2Qzw2HvBl6v54BH8rhgOwMLhi8dcRFdcgB7DJewrLIqxuhIEB-rjFnwsrH_EiuAQqAFhN2T5RQqHjHXCOGt7J84Xj3yVXX5DSoxe4qTodKAzyu-GRuREFY2X7IvCZPz6_roHN9E6WrHqW76RlZwFHoKgiZlgFvF8yt9MycZKMWMxWDZHzR6-cXnWngV3pH5jriRj28x3wv69N_WUVnZdDL4SMimo4lEnyFCz8CCmncldylxu-PTO-MQCNyPCz8fQyVQomIkhZxq1WJUmwVLgbo-NSoMAmYoivv5utOsDsUxX7UZqoqJSZ4U5_l6PZfcfnEM_BeM23doi8XtQJwvJAs2JvNUiYpS-9sK9jZ7jcITa4DogLWHdoho5m00]--></g></svg>