<svg xmlns="http://www.w3.org/2000/svg" xmlns:xlink="http://www.w3.org/1999/xlink" contentStyleType="text/css" data-diagram-type="DESCRIPTION" height="253px" preserveAspectRatio="none" style="width:3496px;height:253px;background:#FFFFFF;" version="1.1" viewBox="0 0 3496 253" width="3496px" zoomAndPan="magnify"><title>Diagramme CU - Gestion d'un magasin</title><defs/><g><g class="title" data-source-line="1"><text fill="#000000" font-family="sans-serif" font-size="14" font-weight="bold" lengthAdjust="spacing" textLength="303.9736" x="1589.4797" y="22.9951">Diagramme CU - Gestion d'un magasin</text></g><!--entity Client--><g class="entity" data-entity="Client" data-source-line="3" data-uid="ent0002" id="entity_Client"><ellipse cx="739.8151" cy="51.2969" fill="#F1F1F1" rx="8" ry="8" style="stroke:#181818;stroke-width:0.5;"/><path d="M739.8151,59.2969 L739.8151,86.2969 M726.8151,67.2969 L752.8151,67.2969 M739.8151,86.2969 L726.8151,101.2969 M739.8151,86.2969 L752.8151,101.2969" fill="none" style="stroke:#181818;stroke-width:0.5;"/><text fill="#000000" font-family="sans-serif" font-size="14" lengthAdjust="spacing" textLength="40.5303" x="719.55" y="115.792">Client</text></g><!--entity Gestionnaire--><g class="entity" data-entity="Gestionnaire" data-source-line="4" data-uid="ent0003" id="entity_Gestionnaire"><ellipse cx="2208.8221" cy="51.2969" fill="#F1F1F1" rx="8" ry="8" style="stroke:#181818;stroke-width:0.5;"/><path d="M2208.8221,59.2969 L2208.8221,86.2969 M2195.8221,67.2969 L2221.8221,67.2969 M2208.8221,86.2969 L2195.8221,101.2969 M2208.8221,86.2969 L2221.8221,101.2969" fill="none" style="stroke:#181818;stroke-width:0.5;"/><text fill="#000000" font-family="sans-serif" font-size="14" lengthAdjust="spacing" textLength="89.2842" x="2164.18" y="115.792">Gestionnaire</text></g><!--entity UC1--><g class="entity" data-entity="UC1" data-source-line="7" data-uid="ent0004" id="entity_UC1"><ellipse cx="950.823" cy="221.9035" fill="#F1F1F1" rx="79.383" ry="18.2766" style="stroke:#181818;stroke-width:0.5;"/><text fill="#000000" font-family="sans-serif" font-size="14" lengthAdjust="spacing" textLength="129.2197" x="886.2131" y="226.5519">Consulter produits</text></g><!--entity UC2--><g class="entity" data-entity="UC2" data-source-line="8" data-uid="ent0005" id="entity_UC2"><ellipse cx="759.8159" cy="221.904" fill="#F1F1F1" rx="76.2359" ry="17.6472" style="stroke:#181818;stroke-width:0.5;"/><text fill="#000000" font-family="sans-serif" font-size="14" lengthAdjust="spacing" textLength="121.7139" x="698.9589" y="226.5525">Ajouter au panier</text></g><!--entity UC3--><g class="entity" data-entity="UC3" data-source-line="9" data-uid="ent0006" id="entity_UC3"><ellipse cx="299.8179" cy="221.9064" fill="#F1F1F1" rx="79.5479" ry="18.3096" style="stroke:#181818;stroke-width:0.5;"/><text fill="#000000" font-family="sans-serif" font-size="14" lengthAdjust="spacing" textLength="129.6094" x="235.0132" y="226.5549">Effectuer un achat</text></g><!--entity UC4--><g class="entity" data-entity="UC4" data-source-line="10" data-uid="ent0007" id="entity_UC4"><ellipse cx="95.8185" cy="221.9106" fill="#F1F1F1" rx="89.8185" ry="20.3637" style="stroke:#181818;stroke-width:0.5;"/><text fill="#000000" font-family="sans-serif" font-size="14" lengthAdjust="spacing" textLength="153.3301" x="19.1535" y="226.559">Voir historique achats</text></g><!--entity UC5--><g class="entity" data-entity="UC5" data-source-line="11" data-uid="ent0008" id="entity_UC5"><ellipse cx="531.8243" cy="221.9117" fill="#F1F1F1" rx="117.0243" ry="25.8049" style="stroke:#181818;stroke-width:0.5;"/><text fill="#000000" font-family="sans-serif" font-size="14" lengthAdjust="spacing" textLength="212.9941" x="425.3273" y="226.5602">Demander un remboursement</text></g><!--entity UC6--><g class="entity" data-entity="UC6" data-source-line="12" data-uid="ent0009" id="entity_UC6"><ellipse cx="1130.8186" cy="221.9026" fill="#F1F1F1" rx="65.4286" ry="15.4857" style="stroke:#181818;stroke-width:0.5;"/><text fill="#000000" font-family="sans-serif" font-size="14" lengthAdjust="spacing" textLength="94.6025" x="1083.5174" y="226.551">S'authentifier</text></g><!--entity UC7--><g class="entity" data-entity="UC7" data-source-line="15" data-uid="ent0010" id="entity_UC7"><ellipse cx="1982.8246" cy="221.9058" fill="#F1F1F1" rx="77.9946" ry="17.9989" style="stroke:#181818;stroke-width:0.5;"/><text fill="#000000" font-family="sans-serif" font-size="14" lengthAdjust="spacing" textLength="125.9248" x="1919.8622" y="226.5542">G&#233;rer les produits</text></g><!--entity UC8--><g class="entity" data-entity="UC8" data-source-line="16" data-uid="ent0011" id="entity_UC8"><ellipse cx="2208.8206" cy="221.905" fill="#F1F1F1" rx="64.9406" ry="15.3881" style="stroke:#181818;stroke-width:0.5;"/><text fill="#000000" font-family="sans-serif" font-size="14" lengthAdjust="spacing" textLength="93.3105" x="2162.1653" y="226.5534">Cr&#233;er produit</text></g><!--entity UC9--><g class="entity" data-entity="UC9" data-source-line="17" data-uid="ent0012" id="entity_UC9"><ellipse cx="2380.8224" cy="221.9094" fill="#F1F1F1" rx="72.0124" ry="16.8025" style="stroke:#181818;stroke-width:0.5;"/><text fill="#000000" font-family="sans-serif" font-size="14" lengthAdjust="spacing" textLength="111.4053" x="2325.1198" y="226.5578">Modifier produit</text></g><!--entity UC10--><g class="entity" data-entity="UC10" data-source-line="18" data-uid="ent0013" id="entity_UC10"><ellipse cx="2566.8204" cy="221.909" fill="#F1F1F1" rx="78.8604" ry="18.1721" style="stroke:#181818;stroke-width:0.5;"/><text fill="#000000" font-family="sans-serif" font-size="14" lengthAdjust="spacing" textLength="127.9824" x="2502.8292" y="226.5574">Supprimer produit</text></g><!--entity UC11--><g class="entity" data-entity="UC11" data-source-line="19" data-uid="ent0014" id="entity_UC11"><ellipse cx="3205.8186" cy="221.9026" fill="#F1F1F1" rx="81.9786" ry="18.7957" style="stroke:#181818;stroke-width:0.5;"/><text fill="#000000" font-family="sans-serif" font-size="14" lengthAdjust="spacing" textLength="135.3174" x="3138.1599" y="226.551">G&#233;rer les magasins</text></g><!--entity UC12--><g class="entity" data-entity="UC12" data-source-line="20" data-uid="ent0015" id="entity_UC12"><ellipse cx="3406.8216" cy="221.9092" fill="#F1F1F1" rx="84.1116" ry="19.2223" style="stroke:#181818;stroke-width:0.5;"/><text fill="#000000" font-family="sans-serif" font-size="14" lengthAdjust="spacing" textLength="140.2734" x="3336.6848" y="226.5576">Consulter les stocks</text></g><!--entity UC13--><g class="entity" data-entity="UC13" data-source-line="21" data-uid="ent0016" id="entity_UC13"><ellipse cx="1307.8197" cy="221.9108" fill="#F1F1F1" rx="76.6197" ry="17.7239" style="stroke:#181818;stroke-width:0.5;"/><text fill="#000000" font-family="sans-serif" font-size="14" lengthAdjust="spacing" textLength="122.6367" x="1246.5014" y="226.5593">Ajuster les stocks</text></g><!--entity UC14--><g class="entity" data-entity="UC14" data-source-line="22" data-uid="ent0017" id="entity_UC14"><ellipse cx="2766.8199" cy="221.9069" fill="#F1F1F1" rx="86.5499" ry="19.71" style="stroke:#181818;stroke-width:0.5;"/><text fill="#000000" font-family="sans-serif" font-size="14" lengthAdjust="spacing" textLength="145.8857" x="2693.877" y="226.5553">Consulter dashboard</text></g><!--entity UC15--><g class="entity" data-entity="UC15" data-source-line="23" data-uid="ent0018" id="entity_UC15"><ellipse cx="3012.8202" cy="221.9029" fill="#F1F1F1" rx="75.8302" ry="17.566" style="stroke:#181818;stroke-width:0.5;"/><text fill="#000000" font-family="sans-serif" font-size="14" lengthAdjust="spacing" textLength="120.7363" x="2952.4521" y="226.5514">G&#233;n&#233;rer rapports</text></g><!--entity UC16--><g class="entity" data-entity="UC16" data-source-line="24" data-uid="ent0019" id="entity_UC16"><ellipse cx="1516.8153" cy="221.9079" fill="#F1F1F1" rx="97.7053" ry="21.9411" style="stroke:#181818;stroke-width:0.5;"/><text fill="#000000" font-family="sans-serif" font-size="14" lengthAdjust="spacing" textLength="170.9873" x="1431.3216" y="226.5564">Traiter remboursements</text></g><!--entity UC17--><g class="entity" data-entity="UC17" data-source-line="25" data-uid="ent0020" id="entity_UC17"><ellipse cx="1759.8227" cy="221.9054" fill="#F1F1F1" rx="109.8927" ry="24.3785" style="stroke:#181818;stroke-width:0.5;"/><text fill="#000000" font-family="sans-serif" font-size="14" lengthAdjust="spacing" textLength="197.6475" x="1660.999" y="226.5539">Voir m&#233;triques performance</text></g><!--link Client to UC1--><g class="link" data-entity-1="Client" data-entity-2="UC1" data-source-line="28" data-uid="lnk21" id="link_Client_UC1"><path d="M760.27,103.1969 C778.61,121.4469 806.86,147.6569 834.82,166.0969 C858.9,181.9769 882.7736,193.4804 905.9536,203.2804" fill="none" id="Client-to-UC1" style="stroke:#181818;stroke-width:1;"/><polygon fill="#181818" points="911.48,205.6169,904.748,198.428,906.8747,203.6698,901.6328,205.7965,911.48,205.6169" style="stroke:#181818;stroke-width:1;"/></g><!--link Client to UC2--><g class="link" data-entity-1="Client" data-entity-2="UC2" data-source-line="29" data-uid="lnk22" id="link_Client_UC2"><path d="M745.23,119.5469 C749.19,147.0369 753.5163,177.0879 756.5163,197.9579" fill="none" id="Client-to-UC2" style="stroke:#181818;stroke-width:1;"/><polygon fill="#181818" points="757.37,203.8969,760.0487,194.4193,756.6586,198.9477,752.1301,195.5576,757.37,203.8969" style="stroke:#181818;stroke-width:1;"/></g><!--link Client to UC3--><g class="link" data-entity-1="Client" data-entity-2="UC3" data-source-line="30" data-uid="lnk23" id="link_Client_UC3"><path d="M719.19,88.4669 C652.16,109.6269 445.1714,174.9999 351.0714,204.7199" fill="none" id="Client-to-UC3" style="stroke:#181818;stroke-width:1;"/><polygon fill="#181818" points="345.35,206.5269,355.1368,207.6306,350.1179,205.021,352.7275,200.0021,345.35,206.5269" style="stroke:#181818;stroke-width:1;"/></g><!--link Client to UC4--><g class="link" data-entity-1="Client" data-entity-2="UC4" data-source-line="31" data-uid="lnk24" id="link_Client_UC4"><path d="M719.06,86.2169 C647.36,100.9969 403.56,151.4969 202.82,196.0969 C187.93,199.4069 177.7356,201.7146 162.7356,205.1846" fill="none" id="Client-to-UC4" style="stroke:#181818;stroke-width:1;"/><polygon fill="#181818" points="156.89,206.5369,166.56,208.4055,161.7614,205.41,164.7569,200.6114,156.89,206.5369" style="stroke:#181818;stroke-width:1;"/></g><!--link Client to UC5--><g class="link" data-entity-1="Client" data-entity-2="UC5" data-source-line="32" data-uid="lnk25" id="link_Client_UC5"><path d="M719.11,95.7769 C683.77,119.3969 616.3591,164.4239 572.6491,193.6239" fill="none" id="Client-to-UC5" style="stroke:#181818;stroke-width:1;"/><polygon fill="#181818" points="567.66,196.9569,577.3657,195.2836,571.8176,194.1794,572.9217,188.6314,567.66,196.9569" style="stroke:#181818;stroke-width:1;"/></g><!--link Client to UC6--><g class="link" data-entity-1="Client" data-entity-2="UC6" data-source-line="33" data-uid="lnk26" id="link_Client_UC6"><path d="M760.27,97.2869 C786.85,116.4369 835.37,148.7769 881.82,166.0969 C952.07,192.2869 974.9,178.6669 1047.82,196.0969 C1062.88,199.6969 1073.5231,202.6595 1087.7231,207.0095" fill="none" id="Client-to-UC6" style="stroke:#181818;stroke-width:1;"/><polygon fill="#181818" points="1093.46,208.7669,1086.0263,202.3062,1088.6793,207.3024,1083.6831,209.9553,1093.46,208.7669" style="stroke:#181818;stroke-width:1;"/></g><!--link Gestionnaire to UC1--><g class="link" data-entity-1="Gestionnaire" data-entity-2="UC1" data-source-line="36" data-uid="lnk27" id="link_Gestionnaire_UC1"><path d="M2163.99,84.4669 C2038.09,91.7669 1670.62,114.6369 1366.82,149.0969 C1224.42,165.2469 1188.32,167.8669 1047.82,196.0969 C1032.14,199.2469 1021.0086,201.8333 1005.7486,205.7833" fill="none" id="Gestionnaire-to-UC1" style="stroke:#181818;stroke-width:1;"/><polygon fill="#181818" points="999.94,207.2869,1009.6552,208.904,1004.7805,206.0339,1007.6505,201.1592,999.94,207.2869" style="stroke:#181818;stroke-width:1;"/></g><!--link Gestionnaire to UC6--><g class="link" data-entity-1="Gestionnaire" data-entity-2="UC6" data-source-line="37" data-uid="lnk28" id="link_Gestionnaire_UC6"><path d="M2163.69,84.0169 C2022.19,91.1669 1575.12,118.7769 1213.82,196.0969 C1198.38,199.4069 1187.3681,202.3811 1172.9981,206.8611" fill="none" id="Gestionnaire-to-UC6" style="stroke:#181818;stroke-width:1;"/><polygon fill="#181818" points="1167.27,208.6469,1177.0527,209.7869,1172.0434,207.1587,1174.6716,202.1495,1167.27,208.6469" style="stroke:#181818;stroke-width:1;"/></g><!--link Gestionnaire to UC7--><g class="link" data-entity-1="Gestionnaire" data-entity-2="UC7" data-source-line="38" data-uid="lnk29" id="link_Gestionnaire_UC7"><path d="M2163.79,97.5269 C2132.89,109.2969 2091.68,127.1469 2058.82,149.0969 C2035.27,164.8269 2016.2532,183.6229 2001.8232,199.3729" fill="none" id="Gestionnaire-to-UC7" style="stroke:#181818;stroke-width:1;"/><polygon fill="#181818" points="1997.77,203.7969,2006.7991,199.863,2001.1477,200.1102,2000.9005,194.4588,1997.77,203.7969" style="stroke:#181818;stroke-width:1;"/></g><!--link Gestionnaire to UC8--><g class="link" data-entity-1="Gestionnaire" data-entity-2="UC8" data-source-line="39" data-uid="lnk30" id="link_Gestionnaire_UC8"><path d="M2208.82,119.5469 C2208.82,148.0069 2208.82,179.5569 2208.82,200.0369" fill="none" id="Gestionnaire-to-UC8" style="stroke:#181818;stroke-width:1;"/><polygon fill="#181818" points="2208.82,206.0369,2212.82,197.0369,2208.82,201.0369,2204.82,197.0369,2208.82,206.0369" style="stroke:#181818;stroke-width:1;"/></g><!--link Gestionnaire to UC9--><g class="link" data-entity-1="Gestionnaire" data-entity-2="UC9" data-source-line="40" data-uid="lnk31" id="link_Gestionnaire_UC9"><path d="M2253.56,118.0969 C2288.6,146.3969 2330.9426,180.6066 2356.9026,201.5766" fill="none" id="Gestionnaire-to-UC9" style="stroke:#181818;stroke-width:1;"/><polygon fill="#181818" points="2361.57,205.3469,2357.0823,196.5798,2357.6805,202.205,2352.0553,202.8031,2361.57,205.3469" style="stroke:#181818;stroke-width:1;"/></g><!--link Gestionnaire to UC10--><g class="link" data-entity-1="Gestionnaire" data-entity-2="UC10" data-source-line="41" data-uid="lnk32" id="link_Gestionnaire_UC10"><path d="M2253.8,99.4069 C2324.6,126.8869 2455.2567,177.5954 2522.1767,203.5754" fill="none" id="Gestionnaire-to-UC10" style="stroke:#181818;stroke-width:1;"/><polygon fill="#181818" points="2527.77,205.7469,2520.8277,198.7608,2523.1089,203.9373,2517.9324,206.2186,2527.77,205.7469" style="stroke:#181818;stroke-width:1;"/></g><!--link Gestionnaire to UC11--><g class="link" data-entity-1="Gestionnaire" data-entity-2="UC11" data-source-line="42" data-uid="lnk33" id="link_Gestionnaire_UC11"><path d="M2253.91,85.8069 C2385.76,97.5069 2781.77,135.4969 3105.82,196.0969 C3121.64,199.0569 3132.8794,201.5408 3148.3494,205.4108" fill="none" id="Gestionnaire-to-UC11" style="stroke:#181818;stroke-width:1;"/><polygon fill="#181818" points="3154.17,206.8669,3146.4098,200.8023,3149.3195,205.6535,3144.4683,208.5631,3154.17,206.8669" style="stroke:#181818;stroke-width:1;"/></g><!--link Gestionnaire to UC12--><g class="link" data-entity-1="Gestionnaire" data-entity-2="UC12" data-source-line="43" data-uid="lnk34" id="link_Gestionnaire_UC12"><path d="M2253.78,84.2669 C2403.81,92.5069 2900.63,123.8369 3304.82,196.0969 C3320.79,198.9469 3332.1522,201.3897 3347.7922,205.2197" fill="none" id="Gestionnaire-to-UC12" style="stroke:#181818;stroke-width:1;"/><polygon fill="#181818" points="3353.62,206.6469,3345.8297,200.621,3348.7635,205.4576,3343.9269,208.3914,3353.62,206.6469" style="stroke:#181818;stroke-width:1;"/></g><!--link Gestionnaire to UC13--><g class="link" data-entity-1="Gestionnaire" data-entity-2="UC13" data-source-line="44" data-uid="lnk35" id="link_Gestionnaire_UC13"><path d="M2163.89,86.4269 C2041.06,99.0869 1689.62,137.9769 1401.82,196.0969 C1386.27,199.2369 1375.2556,201.8639 1360.2156,205.8939" fill="none" id="Gestionnaire-to-UC13" style="stroke:#181818;stroke-width:1;"/><polygon fill="#181818" points="1354.42,207.4469,1364.1486,208.9812,1359.2496,206.1528,1362.078,201.2538,1354.42,207.4469" style="stroke:#181818;stroke-width:1;"/></g><!--link Gestionnaire to UC14--><g class="link" data-entity-1="Gestionnaire" data-entity-2="UC14" data-source-line="45" data-uid="lnk36" id="link_Gestionnaire_UC14"><path d="M2253.54,93.0869 C2354.27,118.1669 2592.9678,177.6071 2704.2078,205.3071" fill="none" id="Gestionnaire-to-UC14" style="stroke:#181818;stroke-width:1;"/><polygon fill="#181818" points="2710.03,206.7569,2702.2632,200.7007,2705.1782,205.5487,2700.3302,208.4637,2710.03,206.7569" style="stroke:#181818;stroke-width:1;"/></g><!--link Gestionnaire to UC15--><g class="link" data-entity-1="Gestionnaire" data-entity-2="UC15" data-source-line="46" data-uid="lnk37" id="link_Gestionnaire_UC15"><path d="M2253.77,89.6669 C2360.72,108.0269 2638.7,155.8169 2870.82,196.0969 C2898.07,200.8269 2922.3397,205.0632 2947.8397,209.5232" fill="none" id="Gestionnaire-to-UC15" style="stroke:#181818;stroke-width:1;"/><polygon fill="#181818" points="2953.75,210.5569,2945.5737,205.0661,2948.8248,209.6954,2944.1954,212.9465,2953.75,210.5569" style="stroke:#181818;stroke-width:1;"/></g><!--link Gestionnaire to UC16--><g class="link" data-entity-1="Gestionnaire" data-entity-2="UC16" data-source-line="47" data-uid="lnk38" id="link_Gestionnaire_UC16"><path d="M2163.96,90.5969 C2066.97,109.3569 1830.52,155.3769 1632.82,196.0969 C1617.59,199.2369 1607.1178,201.4244 1591.6578,204.7244" fill="none" id="Gestionnaire-to-UC16" style="stroke:#181818;stroke-width:1;"/><polygon fill="#181818" points="1585.79,205.9769,1595.4267,208.01,1590.6798,204.9331,1593.7567,200.1862,1585.79,205.9769" style="stroke:#181818;stroke-width:1;"/></g><!--link Gestionnaire to UC17--><g class="link" data-entity-1="Gestionnaire" data-entity-2="UC17" data-source-line="48" data-uid="lnk39" id="link_Gestionnaire_UC17"><path d="M2163.71,95.9069 C2083.1,120.8569 1919.9018,171.3631 1828.1318,199.7631" fill="none" id="Gestionnaire-to-UC17" style="stroke:#181818;stroke-width:1;"/><polygon fill="#181818" points="1822.4,201.5369,1832.1803,202.6974,1827.1765,200.0587,1829.8152,195.0549,1822.4,201.5369" style="stroke:#181818;stroke-width:1;"/></g><!--link UC7 to UC8--><g class="link" data-entity-1="UC7" data-entity-2="UC8" data-source-line="51" data-uid="lnk40" id="link_UC7_UC8"><path d="M2061.23,221.9069 C2088.13,221.9069 2111.92,221.9069 2137.66,221.9069" fill="none" id="UC7-to-UC8" style="stroke:#181818;stroke-width:1;stroke-dasharray:7.0,7.0;"/><polygon fill="#181818" points="2143.66,221.9069,2134.66,217.9069,2138.66,221.9069,2134.66,225.9069,2143.66,221.9069" style="stroke:#181818;stroke-width:1;"/><text fill="#000000" font-family="sans-serif" font-size="13" lengthAdjust="spacing" textLength="47.0996" x="2078.85" y="214.9738">include</text></g><!--link UC7 to UC9--><g class="link" data-entity-1="UC7" data-entity-2="UC9" data-source-line="52" data-uid="lnk41" id="link_UC7_UC9"><path d="M1999.75,204.0569 C2015.38,188.9769 2040.08,168.4969 2066.32,159.8169 C2116.31,143.2669 2258.5309,183.3343 2332.2909,206.2843" fill="none" id="UC7-to-UC9" style="stroke:#181818;stroke-width:1;stroke-dasharray:7.0,7.0;"/><polygon fill="#181818" points="2338.02,208.0669,2330.6148,201.5736,2333.2458,206.5814,2328.238,209.2124,2338.02,208.0669" style="stroke:#181818;stroke-width:1;"/><text fill="#000000" font-family="sans-serif" font-size="13" lengthAdjust="spacing" textLength="47.0996" x="2067.32" y="162.1638">include</text></g><!--link UC7 to UC10--><g class="link" data-entity-1="UC7" data-entity-2="UC10" data-source-line="53" data-uid="lnk42" id="link_UC7_UC10"><path d="M2012.2,204.8169 C2040.21,189.5769 2084.11,168.4069 2125.32,159.8169 C2270.24,129.6169 2439.3615,177.2491 2518.5115,204.2591" fill="none" id="UC7-to-UC10" style="stroke:#181818;stroke-width:1;stroke-dasharray:7.0,7.0;"/><polygon fill="#181818" points="2524.19,206.1969,2516.9642,199.5046,2519.4579,204.5821,2514.3804,207.0758,2524.19,206.1969" style="stroke:#181818;stroke-width:1;"/><text fill="#000000" font-family="sans-serif" font-size="13" lengthAdjust="spacing" textLength="47.0996" x="2126.32" y="162.1638">include</text></g><!--link UC3 to UC6--><g class="link" data-entity-1="UC3" data-entity-2="UC6" data-source-line="54" data-uid="lnk43" id="link_UC3_UC6"><path d="M348.28,207.1069 C363.67,202.9269 380.84,198.7869 396.82,196.0969 C515.97,176.0469 819.98,140.9469 939.32,159.8169 C997.14,168.9569 1055.7274,190.4433 1093.1674,205.7733" fill="none" id="UC3-to-UC6" style="stroke:#181818;stroke-width:1;stroke-dasharray:7.0,7.0;"/><polygon fill="#181818" points="1098.72,208.0469,1091.9068,200.9349,1094.0929,206.1523,1088.8755,208.3383,1098.72,208.0469" style="stroke:#181818;stroke-width:1;"/><text fill="#000000" font-family="sans-serif" font-size="13" lengthAdjust="spacing" textLength="47.0996" x="891.32" y="162.1638">include</text></g><!--link UC5 to UC6--><g class="link" data-entity-1="UC5" data-entity-2="UC6" data-source-line="55" data-uid="lnk44" id="link_UC5_UC6"><path d="M615.68,203.6269 C733.88,179.1569 943.33,140.8969 1017.32,159.8169 C1052.79,168.8869 1084.1945,188.122 1105.9045,203.412" fill="none" id="UC5-to-UC6" style="stroke:#181818;stroke-width:1;stroke-dasharray:7.0,7.0;"/><polygon fill="#181818" points="1110.81,206.8669,1105.755,198.4142,1106.7221,203.9878,1101.1485,204.9549,1110.81,206.8669" style="stroke:#181818;stroke-width:1;"/><text fill="#000000" font-family="sans-serif" font-size="13" lengthAdjust="spacing" textLength="47.0996" x="969.32" y="162.1638">include</text></g><!--link UC14 to UC15--><g class="link" data-entity-1="UC14" data-entity-2="UC15" data-source-line="56" data-uid="lnk45" id="link_UC14_UC15"><path d="M2853.55,221.9069 C2880.66,221.9069 2904.36,221.9069 2930.68,221.9069" fill="none" id="UC14-to-UC15" style="stroke:#181818;stroke-width:1;stroke-dasharray:7.0,7.0;"/><polygon fill="#181818" points="2936.68,221.9069,2927.68,217.9069,2931.68,221.9069,2927.68,225.9069,2936.68,221.9069" style="stroke:#181818;stroke-width:1;"/><text fill="#000000" font-family="sans-serif" font-size="13" lengthAdjust="spacing" textLength="47.0996" x="2871.68" y="214.9738">include</text></g><!--SRC=[RP9DRjim48NtEWMHZLSkBEl7SG07A9GYwAARjEb-8erjfXAfykTGFeSl5agcJD6UdURn4-TntXXkMcGl70uAkWvPzSwMx1MruLAmPc45w-00ceiaWTf8nQgMep2-yA00hZ195cotsx4AzF2ZXWDwU90Jgx46ZUoXaaBRrg1YlPADvKO_CFVBUvK6vlkdj0C1blKWE2gFh0FoOx_7sbW7EOzG7y5u9WlCNyaLEtBjhFB_5Y_Or2uFt0js89hBLGgx3scLniuvzsWHqDyBiEReZlW-s2gfjyzd4q_WzNnIhbcB-dO4czcOrFaKPkJF7yFvBzcC5cw8xSogxNl5kpiaNP5MVCxND58giW5quwp_NR7rF3MhQIYZxcf07pyag6QYyiYNk5XJqFTIXIMPPV570HykYYAxWkND7dJdandNm4qTrLugbtcD4xsP8dp35eRSz7nv_UTo-JpkQLIkupABopmkYxWixxlUhKqaJ0u8iQJ43IK-KkAMRBGYLRA_smHApKWr9zM2LCc7XS1-YhgrUfpTC2xtPlPjV2LxOdmuQp28MqfCLv6QNTGo4WjAJ7D_GH7aBm00]--></g></svg>