<svg xmlns="http://www.w3.org/2000/svg" xmlns:xlink="http://www.w3.org/1999/xlink" contentStyleType="text/css" data-diagram-type="CLASS" height="832px" preserveAspectRatio="none" style="width:769px;height:832px;background:#FFFFFF;" version="1.1" viewBox="0 0 769 832" width="769px" zoomAndPan="magnify"><title>Mod&#232;le du domaine &#8212; LOG430 Magasin</title><defs/><g><g class="title" data-source-line="1"><text fill="#000000" font-family="sans-serif" font-size="14" font-weight="bold" lengthAdjust="spacing" textLength="311.1377" x="222.1821" y="22.9951">Mod&#232;le du domaine &#8212; LOG430 Magasin</text></g><!--class Product--><g class="entity" data-entity="Product" data-source-line="4" data-uid="ent0002" id="entity_Product"><rect fill="#F1F1F1" height="113.1875" rx="2.5" ry="2.5" style="stroke:#181818;stroke-width:0.5;" width="89.8408" x="133.22" y="250.7769"/><ellipse cx="150.0789" cy="266.7769" fill="#ADD1B2" rx="11" ry="11" style="stroke:#181818;stroke-width:1;"/><path d="M153.0476,272.4175 Q152.4695,272.7144 151.8289,272.855 Q151.1883,273.0113 150.4851,273.0113 Q147.9851,273.0113 146.657,271.3706 Q145.3445,269.7144 145.3445,266.5894 Q145.3445,263.4644 146.657,261.8081 Q147.9851,260.1519 150.4851,260.1519 Q151.1883,260.1519 151.8289,260.3081 Q152.4851,260.4644 153.0476,260.7613 L153.0476,263.48 Q152.4226,262.9019 151.8289,262.6363 Q151.2351,262.355 150.6101,262.355 Q149.2664,262.355 148.5789,263.4331 Q147.8914,264.4956 147.8914,266.5894 Q147.8914,268.6831 148.5789,269.7613 Q149.2664,270.8238 150.6101,270.8238 Q151.2351,270.8238 151.8289,270.5581 Q152.4226,270.2769 153.0476,269.6988 L153.0476,272.4175 Z " fill="#000000"/><text fill="#000000" font-family="sans-serif" font-size="14" lengthAdjust="spacing" textLength="53.71" x="164.492" y="271.6236">Product</text><line style="stroke:#181818;stroke-width:0.5;" x1="134.22" x2="222.0608" y1="282.7769" y2="282.7769"/><text fill="#000000" font-family="sans-serif" font-size="14" lengthAdjust="spacing" textLength="60.0469" x="139.22" y="299.772">{key} id</text><text fill="#000000" font-family="sans-serif" font-size="14" lengthAdjust="spacing" textLength="39.7031" x="139.22" y="316.0689">name</text><text fill="#000000" font-family="sans-serif" font-size="14" lengthAdjust="spacing" textLength="34.8428" x="139.22" y="332.3657">price</text><text fill="#000000" font-family="sans-serif" font-size="14" lengthAdjust="spacing" textLength="77.8408" x="139.22" y="348.6626">description</text><line style="stroke:#181818;stroke-width:0.5;" x1="134.22" x2="222.0608" y1="355.9644" y2="355.9644"/></g><!--class Store--><g class="entity" data-entity="Store" data-source-line="11" data-uid="ent0003" id="entity_Store"><rect fill="#F1F1F1" height="96.8906" rx="2.5" ry="2.5" style="stroke:#181818;stroke-width:0.5;" width="72.0469" x="481.12" y="52.4469"/><ellipse cx="497.3513" cy="68.4469" fill="#ADD1B2" rx="11" ry="11" style="stroke:#181818;stroke-width:1;"/><path d="M500.3201,74.0875 Q499.742,74.3844 499.1013,74.525 Q498.4607,74.6812 497.7576,74.6812 Q495.2576,74.6812 493.9295,73.0406 Q492.617,71.3844 492.617,68.2594 Q492.617,65.1344 493.9295,63.4781 Q495.2576,61.8219 497.7576,61.8219 Q498.4607,61.8219 499.1013,61.9781 Q499.7576,62.1344 500.3201,62.4312 L500.3201,65.15 Q499.6951,64.5719 499.1013,64.3062 Q498.5076,64.025 497.8826,64.025 Q496.5388,64.025 495.8513,65.1031 Q495.1638,66.1656 495.1638,68.2594 Q495.1638,70.3531 495.8513,71.4312 Q496.5388,72.4937 497.8826,72.4937 Q498.5076,72.4937 499.1013,72.2281 Q499.6951,71.9469 500.3201,71.3687 L500.3201,74.0875 Z " fill="#000000"/><text fill="#000000" font-family="sans-serif" font-size="14" lengthAdjust="spacing" textLength="37.3105" x="511.625" y="73.2936">Store</text><line style="stroke:#181818;stroke-width:0.5;" x1="482.12" x2="552.1669" y1="84.4469" y2="84.4469"/><text fill="#000000" font-family="sans-serif" font-size="14" lengthAdjust="spacing" textLength="60.0469" x="487.12" y="101.442">{key} id</text><text fill="#000000" font-family="sans-serif" font-size="14" lengthAdjust="spacing" textLength="39.7031" x="487.12" y="117.7389">name</text><text fill="#000000" font-family="sans-serif" font-size="14" lengthAdjust="spacing" textLength="55.3096" x="487.12" y="134.0357">address</text><line style="stroke:#181818;stroke-width:0.5;" x1="482.12" x2="552.1669" y1="141.3375" y2="141.3375"/></g><!--class Stock--><g class="entity" data-entity="Stock" data-source-line="17" data-uid="ent0004" id="entity_Stock"><rect fill="#F1F1F1" height="113.1875" rx="2.5" ry="2.5" style="stroke:#181818;stroke-width:0.5;" width="79.1699" x="8.56" y="481.7069"/><ellipse cx="27.3507" cy="497.7069" fill="#ADD1B2" rx="11" ry="11" style="stroke:#181818;stroke-width:1;"/><path d="M30.3195,503.3475 Q29.7413,503.6444 29.1007,503.785 Q28.4601,503.9412 27.757,503.9412 Q25.257,503.9412 23.9288,502.3006 Q22.6163,500.6444 22.6163,497.5194 Q22.6163,494.3944 23.9288,492.7381 Q25.257,491.0819 27.757,491.0819 Q28.4601,491.0819 29.1007,491.2381 Q29.757,491.3944 30.3195,491.6912 L30.3195,494.41 Q29.6945,493.8319 29.1007,493.5662 Q28.507,493.285 27.882,493.285 Q26.5382,493.285 25.8507,494.3631 Q25.1632,495.4256 25.1632,497.5194 Q25.1632,499.6131 25.8507,500.6912 Q26.5382,501.7537 27.882,501.7537 Q28.507,501.7537 29.1007,501.4881 Q29.6945,501.2069 30.3195,500.6287 L30.3195,503.3475 Z " fill="#000000"/><text fill="#000000" font-family="sans-serif" font-size="14" lengthAdjust="spacing" textLength="38.7461" x="42.1931" y="502.5536">Stock</text><line style="stroke:#181818;stroke-width:0.5;" x1="9.56" x2="86.7299" y1="513.7069" y2="513.7069"/><text fill="#000000" font-family="sans-serif" font-size="14" lengthAdjust="spacing" textLength="60.0469" x="14.56" y="530.702">{key} id</text><text fill="#000000" font-family="sans-serif" font-size="14" lengthAdjust="spacing" textLength="48.7334" x="14.56" y="546.9989">storeId</text><text fill="#000000" font-family="sans-serif" font-size="14" lengthAdjust="spacing" textLength="67.1699" x="14.56" y="563.2957">productId</text><text fill="#000000" font-family="sans-serif" font-size="14" lengthAdjust="spacing" textLength="58.3652" x="14.56" y="579.5926">quantity</text><line style="stroke:#181818;stroke-width:0.5;" x1="9.56" x2="86.7299" y1="586.8944" y2="586.8944"/></g><!--class User--><g class="entity" data-entity="User" data-source-line="24" data-uid="ent0005" id="entity_User"><rect fill="#F1F1F1" height="113.1875" rx="2.5" ry="2.5" style="stroke:#181818;stroke-width:0.5;" width="78.7119" x="683.79" y="44.2969"/><ellipse cx="705.4508" cy="60.2969" fill="#ADD1B2" rx="11" ry="11" style="stroke:#181818;stroke-width:1;"/><path d="M708.4195,65.9375 Q707.8414,66.2344 707.2008,66.375 Q706.5602,66.5313 705.857,66.5313 Q703.357,66.5313 702.0289,64.8906 Q700.7164,63.2344 700.7164,60.1094 Q700.7164,56.9844 702.0289,55.3281 Q703.357,53.6719 705.857,53.6719 Q706.5602,53.6719 707.2008,53.8281 Q707.857,53.9844 708.4195,54.2813 L708.4195,57 Q707.7945,56.4219 707.2008,56.1563 Q706.607,55.875 705.982,55.875 Q704.6383,55.875 703.9508,56.9531 Q703.2633,58.0156 703.2633,60.1094 Q703.2633,62.2031 703.9508,63.2813 Q704.6383,64.3438 705.982,64.3438 Q706.607,64.3438 707.2008,64.0781 Q707.7945,63.7969 708.4195,63.2188 L708.4195,65.9375 Z " fill="#000000"/><text fill="#000000" font-family="sans-serif" font-size="14" lengthAdjust="spacing" textLength="31.9102" x="720.931" y="65.1436">User</text><line style="stroke:#181818;stroke-width:0.5;" x1="684.79" x2="761.5019" y1="76.2969" y2="76.2969"/><text fill="#000000" font-family="sans-serif" font-size="14" lengthAdjust="spacing" textLength="60.0469" x="689.79" y="93.292">{key} id</text><text fill="#000000" font-family="sans-serif" font-size="14" lengthAdjust="spacing" textLength="39.7031" x="689.79" y="109.5889">name</text><text fill="#000000" font-family="sans-serif" font-size="14" lengthAdjust="spacing" textLength="26.8242" x="689.79" y="125.8857">role</text><text fill="#000000" font-family="sans-serif" font-size="14" lengthAdjust="spacing" textLength="66.7119" x="689.79" y="142.1826">password</text><line style="stroke:#181818;stroke-width:0.5;" x1="684.79" x2="761.5019" y1="149.4844" y2="149.4844"/></g><!--class Sale--><g class="entity" data-entity="Sale" data-source-line="31" data-uid="ent0006" id="entity_Sale"><rect fill="#F1F1F1" height="145.7813" rx="2.5" ry="2.5" style="stroke:#181818;stroke-width:0.5;" width="72.0469" x="481.12" y="234.4869"/><ellipse cx="500.6552" cy="250.4869" fill="#ADD1B2" rx="11" ry="11" style="stroke:#181818;stroke-width:1;"/><path d="M503.6239,256.1275 Q503.0458,256.4244 502.4052,256.565 Q501.7645,256.7212 501.0614,256.7212 Q498.5614,256.7212 497.2333,255.0806 Q495.9208,253.4244 495.9208,250.2994 Q495.9208,247.1744 497.2333,245.5181 Q498.5614,243.8619 501.0614,243.8619 Q501.7645,243.8619 502.4052,244.0181 Q503.0614,244.1744 503.6239,244.4712 L503.6239,247.19 Q502.9989,246.6119 502.4052,246.3462 Q501.8114,246.065 501.1864,246.065 Q499.8427,246.065 499.1552,247.1431 Q498.4677,248.2056 498.4677,250.2994 Q498.4677,252.3931 499.1552,253.4712 Q499.8427,254.5337 501.1864,254.5337 Q501.8114,254.5337 502.4052,254.2681 Q502.9989,253.9869 503.6239,253.4087 L503.6239,256.1275 Z " fill="#000000"/><text fill="#000000" font-family="sans-serif" font-size="14" lengthAdjust="spacing" textLength="29.9688" x="515.663" y="255.3336">Sale</text><line style="stroke:#181818;stroke-width:0.5;" x1="482.12" x2="552.1669" y1="266.4869" y2="266.4869"/><text fill="#000000" font-family="sans-serif" font-size="14" lengthAdjust="spacing" textLength="60.0469" x="487.12" y="283.482">{key} id</text><text fill="#000000" font-family="sans-serif" font-size="14" lengthAdjust="spacing" textLength="48.7334" x="487.12" y="299.7789">storeId</text><text fill="#000000" font-family="sans-serif" font-size="14" lengthAdjust="spacing" textLength="43.5518" x="487.12" y="316.0757">userId</text><text fill="#000000" font-family="sans-serif" font-size="14" lengthAdjust="spacing" textLength="31.5684" x="487.12" y="332.3726">date</text><text fill="#000000" font-family="sans-serif" font-size="14" lengthAdjust="spacing" textLength="32.0127" x="487.12" y="348.6695">total</text><text fill="#000000" font-family="sans-serif" font-size="14" lengthAdjust="spacing" textLength="43.0186" x="487.12" y="364.9664">status</text><line style="stroke:#181818;stroke-width:0.5;" x1="482.12" x2="552.1669" y1="372.2681" y2="372.2681"/></g><!--class SaleLine--><g class="entity" data-entity="SaleLine" data-source-line="40" data-uid="ent0007" id="entity_SaleLine"><rect fill="#F1F1F1" height="129.4844" rx="2.5" ry="2.5" style="stroke:#181818;stroke-width:0.5;" width="91.1445" x="371.57" y="473.5569"/><ellipse cx="386.57" cy="489.5569" fill="#ADD1B2" rx="11" ry="11" style="stroke:#181818;stroke-width:1;"/><path d="M389.5388,495.1975 Q388.9606,495.4944 388.32,495.635 Q387.6794,495.7913 386.9763,495.7913 Q384.4763,495.7913 383.1481,494.1506 Q381.8356,492.4944 381.8356,489.3694 Q381.8356,486.2444 383.1481,484.5881 Q384.4763,482.9319 386.9763,482.9319 Q387.6794,482.9319 388.32,483.0881 Q388.9763,483.2444 389.5388,483.5413 L389.5388,486.26 Q388.9138,485.6819 388.32,485.4163 Q387.7263,485.135 387.1013,485.135 Q385.7575,485.135 385.07,486.2131 Q384.3825,487.2756 384.3825,489.3694 Q384.3825,491.4631 385.07,492.5413 Q385.7575,493.6038 387.1013,493.6038 Q387.7263,493.6038 388.32,493.3381 Q388.9138,493.0569 389.5388,492.4788 L389.5388,495.1975 Z " fill="#000000"/><text fill="#000000" font-family="sans-serif" font-size="14" lengthAdjust="spacing" textLength="59.1445" x="400.57" y="494.4036">SaleLine</text><line style="stroke:#181818;stroke-width:0.5;" x1="372.57" x2="461.7145" y1="505.5569" y2="505.5569"/><text fill="#000000" font-family="sans-serif" font-size="14" lengthAdjust="spacing" textLength="60.0469" x="377.57" y="522.552">{key} id</text><text fill="#000000" font-family="sans-serif" font-size="14" lengthAdjust="spacing" textLength="41.3916" x="377.57" y="538.8489">saleId</text><text fill="#000000" font-family="sans-serif" font-size="14" lengthAdjust="spacing" textLength="67.1699" x="377.57" y="555.1457">productId</text><text fill="#000000" font-family="sans-serif" font-size="14" lengthAdjust="spacing" textLength="58.3652" x="377.57" y="571.4426">quantity</text><text fill="#000000" font-family="sans-serif" font-size="14" lengthAdjust="spacing" textLength="61.5234" x="377.57" y="587.7395">unitPrice</text><line style="stroke:#181818;stroke-width:0.5;" x1="372.57" x2="461.7145" y1="595.0413" y2="595.0413"/></g><!--class Refund--><g class="entity" data-entity="Refund" data-source-line="48" data-uid="ent0008" id="entity_Refund"><rect fill="#F1F1F1" height="162.0781" rx="2.5" ry="2.5" style="stroke:#181818;stroke-width:0.5;" width="81.9023" x="541.19" y="457.2669"/><ellipse cx="556.19" cy="473.2669" fill="#ADD1B2" rx="11" ry="11" style="stroke:#181818;stroke-width:1;"/><path d="M559.1587,478.9075 Q558.5806,479.2044 557.94,479.345 Q557.2994,479.5012 556.5962,479.5012 Q554.0962,479.5012 552.7681,477.8606 Q551.4556,476.2044 551.4556,473.0794 Q551.4556,469.9544 552.7681,468.2981 Q554.0962,466.6419 556.5962,466.6419 Q557.2994,466.6419 557.94,466.7981 Q558.5962,466.9544 559.1587,467.2512 L559.1587,469.97 Q558.5337,469.3919 557.94,469.1262 Q557.3462,468.845 556.7212,468.845 Q555.3775,468.845 554.69,469.9231 Q554.0025,470.9856 554.0025,473.0794 Q554.0025,475.1731 554.69,476.2512 Q555.3775,477.3137 556.7212,477.3137 Q557.3462,477.3137 557.94,477.0481 Q558.5337,476.7669 559.1587,476.1887 L559.1587,478.9075 Z " fill="#000000"/><text fill="#000000" font-family="sans-serif" font-size="14" lengthAdjust="spacing" textLength="49.9023" x="570.19" y="478.1136">Refund</text><line style="stroke:#181818;stroke-width:0.5;" x1="542.19" x2="622.0923" y1="489.2669" y2="489.2669"/><text fill="#000000" font-family="sans-serif" font-size="14" lengthAdjust="spacing" textLength="60.0469" x="547.19" y="506.262">{key} id</text><text fill="#000000" font-family="sans-serif" font-size="14" lengthAdjust="spacing" textLength="41.3916" x="547.19" y="522.5589">saleId</text><text fill="#000000" font-family="sans-serif" font-size="14" lengthAdjust="spacing" textLength="48.7334" x="547.19" y="538.8557">storeId</text><text fill="#000000" font-family="sans-serif" font-size="14" lengthAdjust="spacing" textLength="43.5518" x="547.19" y="555.1526">userId</text><text fill="#000000" font-family="sans-serif" font-size="14" lengthAdjust="spacing" textLength="31.5684" x="547.19" y="571.4495">date</text><text fill="#000000" font-family="sans-serif" font-size="14" lengthAdjust="spacing" textLength="32.0127" x="547.19" y="587.7464">total</text><text fill="#000000" font-family="sans-serif" font-size="14" lengthAdjust="spacing" textLength="47.6807" x="547.19" y="604.0432">reason</text><line style="stroke:#181818;stroke-width:0.5;" x1="542.19" x2="622.0923" y1="611.345" y2="611.345"/></g><!--class RefundLine--><g class="entity" data-entity="RefundLine" data-source-line="58" data-uid="ent0009" id="entity_RefundLine"><rect fill="#F1F1F1" height="129.4844" rx="2.5" ry="2.5" style="stroke:#181818;stroke-width:0.5;" width="111.0781" x="151.61" y="696.3469"/><ellipse cx="166.61" cy="712.3469" fill="#ADD1B2" rx="11" ry="11" style="stroke:#181818;stroke-width:1;"/><path d="M169.5788,717.9875 Q169.0006,718.2844 168.36,718.425 Q167.7194,718.5813 167.0163,718.5813 Q164.5163,718.5813 163.1881,716.9406 Q161.8756,715.2844 161.8756,712.1594 Q161.8756,709.0344 163.1881,707.3781 Q164.5163,705.7219 167.0163,705.7219 Q167.7194,705.7219 168.36,705.8781 Q169.0163,706.0344 169.5788,706.3313 L169.5788,709.05 Q168.9538,708.4719 168.36,708.2063 Q167.7663,707.925 167.1413,707.925 Q165.7975,707.925 165.11,709.0031 Q164.4225,710.0656 164.4225,712.1594 Q164.4225,714.2531 165.11,715.3313 Q165.7975,716.3938 167.1413,716.3938 Q167.7663,716.3938 168.36,716.1281 Q168.9538,715.8469 169.5788,715.2688 L169.5788,717.9875 Z " fill="#000000"/><text fill="#000000" font-family="sans-serif" font-size="14" lengthAdjust="spacing" textLength="79.0781" x="180.61" y="717.1936">RefundLine</text><line style="stroke:#181818;stroke-width:0.5;" x1="152.61" x2="261.6881" y1="728.3469" y2="728.3469"/><text fill="#000000" font-family="sans-serif" font-size="14" lengthAdjust="spacing" textLength="60.0469" x="157.61" y="745.342">{key} id</text><text fill="#000000" font-family="sans-serif" font-size="14" lengthAdjust="spacing" textLength="58.9463" x="157.61" y="761.6389">refundId</text><text fill="#000000" font-family="sans-serif" font-size="14" lengthAdjust="spacing" textLength="67.1699" x="157.61" y="777.9357">productId</text><text fill="#000000" font-family="sans-serif" font-size="14" lengthAdjust="spacing" textLength="58.3652" x="157.61" y="794.2326">quantity</text><text fill="#000000" font-family="sans-serif" font-size="14" lengthAdjust="spacing" textLength="61.5234" x="157.61" y="810.5295">unitPrice</text><line style="stroke:#181818;stroke-width:0.5;" x1="152.61" x2="261.6881" y1="817.8313" y2="817.8313"/></g><!--reverse link Store to Stock--><g class="link" data-entity-1="Store" data-entity-2="Stock" data-source-line="67" data-uid="lnk10" id="link_Store_Stock"><path codeLine="67" d="M468.7803,108.7701 C370.1603,123.4201 114.08,167.0269 61.14,234.4869 C6,304.7569 18.27,414.9769 32.8,481.2769" fill="none" id="Store-backto-Stock" style="stroke:#181818;stroke-width:1;"/><polygon fill="none" points="480.65,107.0069,474.1274,103.9319,468.7803,108.7701,475.3029,111.8451,480.65,107.0069" style="stroke:#181818;stroke-width:1;"/><text fill="#000000" font-family="sans-serif" font-size="13" lengthAdjust="spacing" textLength="53.9995" x="62.14" y="311.9438">poss&#232;de</text><text fill="#000000" font-family="sans-serif" font-size="13" lengthAdjust="spacing" textLength="8.271" x="464.9568" y="103.8224">1</text><text fill="#000000" font-family="sans-serif" font-size="13" lengthAdjust="spacing" textLength="23.0356" x="6.5304" y="470.488">0..*</text></g><!--reverse link Product to Stock--><g class="link" data-entity-1="Product" data-entity-2="Stock" data-source-line="68" data-uid="lnk11" id="link_Product_Stock"><path codeLine="68" d="M124.196,355.5821 C106.126,373.1921 95.16,386.9169 82.14,410.2669 C70.03,431.9969 62.06,458.2569 56.92,481.2469" fill="none" id="Product-backto-Stock" style="stroke:#181818;stroke-width:1;"/><polygon fill="none" points="132.79,347.2069,125.7013,348.5298,124.196,355.5821,131.2847,354.2591,132.79,347.2069" style="stroke:#181818;stroke-width:1;"/><text fill="#000000" font-family="sans-serif" font-size="13" lengthAdjust="spacing" textLength="68.1929" x="83.14" y="423.3338">stock&#233; par</text><text fill="#000000" font-family="sans-serif" font-size="13" lengthAdjust="spacing" textLength="8.271" x="116.9464" y="349.4379">1</text><text fill="#000000" font-family="sans-serif" font-size="13" lengthAdjust="spacing" textLength="23.0356" x="33.5901" y="470.4544">0..*</text></g><!--reverse link Store to Sale--><g class="link" data-entity-1="Store" data-entity-2="Sale" data-source-line="69" data-uid="lnk12" id="link_Store_Sale"><path codeLine="69" d="M517.14,161.8269 C517.14,186.9769 517.14,206.2869 517.14,234.2969" fill="none" id="Store-backto-Sale" style="stroke:#181818;stroke-width:1;"/><polygon fill="none" points="517.14,149.8269,513.14,155.8269,517.14,161.8269,521.14,155.8269,517.14,149.8269" style="stroke:#181818;stroke-width:1;"/><text fill="#000000" font-family="sans-serif" font-size="13" lengthAdjust="spacing" textLength="43.3037" x="518.14" y="200.5538">r&#233;alise</text><text fill="#000000" font-family="sans-serif" font-size="13" lengthAdjust="spacing" textLength="8.271" x="508.6202" y="169.4861">1</text><text fill="#000000" font-family="sans-serif" font-size="13" lengthAdjust="spacing" textLength="23.0356" x="493.0094" y="223.4382">0..*</text></g><!--reverse link Store to Refund--><g class="link" data-entity-1="Store" data-entity-2="Refund" data-source-line="70" data-uid="lnk13" id="link_Store_Refund"><path codeLine="70" d="M557.4856,159.7417 C564.7156,171.6817 565.37,174.5269 570.14,187.4869 C607.35,288.4869 614.75,320.1569 604.14,427.2669 C603.19,436.9569 601.76,447.0669 600.09,457.0469" fill="none" id="Store-backto-Refund" style="stroke:#181818;stroke-width:1;"/><polygon fill="none" points="551.27,149.4769,550.9562,156.6811,557.4856,159.7417,557.7994,152.5374,551.27,149.4769" style="stroke:#181818;stroke-width:1;"/><text fill="#000000" font-family="sans-serif" font-size="13" lengthAdjust="spacing" textLength="35.1152" x="609.14" y="311.9438">traite</text><text fill="#000000" font-family="sans-serif" font-size="13" lengthAdjust="spacing" textLength="8.271" x="547.5256" y="169.44">1</text><text fill="#000000" font-family="sans-serif" font-size="13" lengthAdjust="spacing" textLength="23.0356" x="577.6659" y="446.2146">0..*</text></g><!--reverse link User to Sale--><g class="link" data-entity-1="User" data-entity-2="Sale" data-source-line="71" data-uid="lnk14" id="link_User_Sale"><path codeLine="71" d="M674.705,146.1791 C646.275,172.4391 616.14,200.9669 583.14,234.4869 C573.4,244.3869 563.12,255.3169 553.66,265.6069" fill="none" id="User-backto-Sale" style="stroke:#181818;stroke-width:1;"/><polygon fill="none" points="683.52,138.0369,676.3984,139.1696,674.705,146.1791,681.8266,145.0463,683.52,138.0369" style="stroke:#181818;stroke-width:1;"/><text fill="#000000" font-family="sans-serif" font-size="13" lengthAdjust="spacing" textLength="53.6313" x="629.14" y="200.5538">effectue</text><text fill="#000000" font-family="sans-serif" font-size="13" lengthAdjust="spacing" textLength="8.271" x="667.5014" y="140.582">1</text><text fill="#000000" font-family="sans-serif" font-size="13" lengthAdjust="spacing" textLength="23.0356" x="561.3155" y="254.8318">0..*</text></g><!--reverse link User to Refund--><g class="link" data-entity-1="User" data-entity-2="Refund" data-source-line="72" data-uid="lnk15" id="link_User_Refund"><path codeLine="72" d="M709.673,169.6826 C697.783,226.5226 679.44,304.8569 653.14,380.2669 C644.28,405.6869 632.87,432.6469 621.81,456.9169" fill="none" id="User-backto-Refund" style="stroke:#181818;stroke-width:1;"/><polygon fill="none" points="712.13,157.9369,706.9862,162.9908,709.673,169.6826,714.8167,164.6288,712.13,157.9369" style="stroke:#181818;stroke-width:1;"/><text fill="#000000" font-family="sans-serif" font-size="13" lengthAdjust="spacing" textLength="61.3691" x="694.14" y="311.9438">demande</text><text fill="#000000" font-family="sans-serif" font-size="13" lengthAdjust="spacing" textLength="8.271" x="702.4094" y="177.4746">1</text><text fill="#000000" font-family="sans-serif" font-size="13" lengthAdjust="spacing" textLength="23.0356" x="626.3688" y="446.073">0..*</text></g><!--reverse link Sale to SaleLine--><g class="link" data-entity-1="Sale" data-entity-2="SaleLine" data-source-line="73" data-uid="lnk16" id="link_Sale_SaleLine"><path codeLine="73" d="M473.196,354.6855 C457.606,372.8155 448.45,386.6769 438.14,410.2669 C429.6,429.8269 424.51,452.4769 421.48,473.1869" fill="none" id="Sale-backto-SaleLine" style="stroke:#181818;stroke-width:1;"/><polygon fill="none" points="481.02,345.5869,474.0751,347.5282,473.196,354.6855,480.1409,352.7442,481.02,345.5869" style="stroke:#181818;stroke-width:1;"/><text fill="#000000" font-family="sans-serif" font-size="13" lengthAdjust="spacing" textLength="62.4102" x="439.14" y="423.3338">comporte</text><text fill="#000000" font-family="sans-serif" font-size="13" lengthAdjust="spacing" textLength="8.271" x="464.7725" y="349.0013">1</text><text fill="#000000" font-family="sans-serif" font-size="13" lengthAdjust="spacing" textLength="23.0356" x="397.6986" y="462.3191">1..*</text></g><!--reverse link Sale to Refund--><g class="link" data-entity-1="Sale" data-entity-2="Refund" data-source-line="74" data-uid="lnk17" id="link_Sale_Refund"><path codeLine="74" d="M508.4354,392.6069 C508.4554,408.2169 509.94,412.4669 514.14,427.2669 C519.73,446.9269 529.94,466.5069 540.77,483.5969" fill="none" id="Sale-backto-Refund" style="stroke:#181818;stroke-width:1;"/><polygon fill="none" points="508.42,380.6069,504.4277,386.612,508.4354,392.6069,512.4277,386.6017,508.42,380.6069" style="stroke:#181818;stroke-width:1;"/><text fill="#000000" font-family="sans-serif" font-size="13" lengthAdjust="spacing" textLength="84.8936" x="515.14" y="423.3338">peut g&#233;n&#233;rer</text><text fill="#000000" font-family="sans-serif" font-size="13" lengthAdjust="spacing" textLength="8.271" x="499.2202" y="400.3746">1</text><text fill="#000000" font-family="sans-serif" font-size="13" lengthAdjust="spacing" textLength="23.0356" x="510.0072" y="471.5366">0..*</text></g><!--reverse link Product to SaleLine--><g class="link" data-entity-1="Product" data-entity-2="SaleLine" data-source-line="75" data-uid="lnk18" id="link_Product_SaleLine"><path codeLine="75" d="M230.2216,373.3757 C248.7916,394.6957 263.63,409.1469 287.14,427.2669 C309.82,444.7369 321.49,439.7569 344.14,457.2669 C353.52,464.5069 362.7,473.0369 371.22,481.7769" fill="none" id="Product-backto-SaleLine" style="stroke:#181818;stroke-width:1;"/><polygon fill="none" points="222.34,364.3269,223.2645,371.4785,230.2216,373.3757,229.2971,366.2241,222.34,364.3269" style="stroke:#181818;stroke-width:1;"/><text fill="#000000" font-family="sans-serif" font-size="13" lengthAdjust="spacing" textLength="135.7637" x="288.14" y="423.3338">pr&#233;sent comme item</text><text fill="#000000" font-family="sans-serif" font-size="13" lengthAdjust="spacing" textLength="8.271" x="219.0037" y="383.8542">1</text><text fill="#000000" font-family="sans-serif" font-size="13" lengthAdjust="spacing" textLength="23.0356" x="340.5063" y="470.2497">0..*</text></g><!--reverse link Refund to RefundLine--><g class="link" data-entity-1="Refund" data-entity-2="RefundLine" data-source-line="76" data-uid="lnk19" id="link_Refund_RefundLine"><path codeLine="76" d="M531.4727,582.2191 C513.4227,596.8691 500.98,605.9669 480.14,619.3469 C408.23,665.5069 319.38,709.0269 262.97,735.1169" fill="none" id="Refund-backto-RefundLine" style="stroke:#181818;stroke-width:1;"/><polygon fill="none" points="540.79,574.6569,533.6106,575.3322,531.4727,582.2191,538.6521,581.5438,540.79,574.6569" style="stroke:#181818;stroke-width:1;"/><text fill="#000000" font-family="sans-serif" font-size="13" lengthAdjust="spacing" textLength="62.4102" x="431.14" y="662.4138">comporte</text><text fill="#000000" font-family="sans-serif" font-size="13" lengthAdjust="spacing" textLength="8.271" x="525.0186" y="576.6939">1</text><text fill="#000000" font-family="sans-serif" font-size="13" lengthAdjust="spacing" textLength="23.0356" x="270.756" y="728.3212">1..*</text></g><!--reverse link Product to RefundLine--><g class="link" data-entity-1="Product" data-entity-2="RefundLine" data-source-line="77" data-uid="lnk20" id="link_Product_RefundLine"><path codeLine="77" d="M181.677,376.27 C184.987,438.54 190.08,530.1869 196.14,619.3469 C197.85,644.4069 199.95,671.9669 201.86,695.9969" fill="none" id="Product-backto-RefundLine" style="stroke:#181818;stroke-width:1;"/><polygon fill="none" points="181.04,364.2869,177.3641,370.4907,181.677,376.27,185.3528,370.0661,181.04,364.2869" style="stroke:#181818;stroke-width:1;"/><text fill="#000000" font-family="sans-serif" font-size="13" lengthAdjust="spacing" textLength="156.6284" x="197.14" y="542.8738">rembours&#233; comme item</text><text fill="#000000" font-family="sans-serif" font-size="13" lengthAdjust="spacing" textLength="8.271" x="172.9224" y="384.2126">1</text><text fill="#000000" font-family="sans-serif" font-size="13" lengthAdjust="spacing" textLength="23.0356" x="177.0256" y="685.1313">0..*</text></g><!--SRC=[bL9DJjqm4Dxd5AEtA5Ab8X1TiUkYGaYW8b0FOEnvo2AnqvcnAeIGE0I78EV8JJW9jcF82melZzdOZlFzUEOJApN2kJVzSrnD0ECRPHt2o-CJdFqv-Nbq0EVgHh5rK5LxFyO2-Et4IjynmCRdIjUA6Ix8cw05xYk8TN-BTmzWJJuurM3Uj6Jri3F8ccmhrhlgeIeKL-89jn8eOmYP9n1zEmVXn7LgYcosLax_WahFk1j9_ZBILbdoTNb0_Fs_9xDXGDMuf1yYVzaQ9GEJU55r-LD9u2dZMHh876kys_wehEUiNEHMlvDUuZeuiq2vksT2nPkJ6-W_Sqtvzek-fydxnUorLIal3Dz0ApBMgNecZKE8KgqELtdrYM1riB__VLNoKkeOMi_SFnkitjAx4uhJiUzY6cX9BgLZ15BVHS-C2wWoh3UKaB9n0ZcbkohXUerQmXBgWvB1HhdOZP5i2ZfybygZ7a3QDwqd-HmrAzLY4BZfEzTtXBJK_wbY6_l8w2H9DmYnEKqrqizPtiZdnF9ssGyemkRQ1-8u-L7u5G00]--></g></svg>