<svg xmlns="http://www.w3.org/2000/svg" xmlns:xlink="http://www.w3.org/1999/xlink" contentStyleType="text/css" data-diagram-type="SEQUENCE" height="1006px" preserveAspectRatio="none" style="width:1497px;height:1006px;background:#FFFFFF;" version="1.1" viewBox="0 0 1497 1006" width="1497px" zoomAndPan="magnify"><title>RDCU - Remboursement produit</title><defs/><g><text fill="#000000" font-family="sans-serif" font-size="14" font-weight="bold" lengthAdjust="spacing" textLength="252.4443" x="623.3101" y="27.9951">RDCU - Remboursement produit</text><rect fill="none" height="511.0625" style="stroke:#000000;stroke-width:1.5;" width="1480.0645" x="10" y="397.7891"/><g><title>Client</title><rect fill="#000000" fill-opacity="0.00000" height="807.2578" width="8" x="39.2651" y="118.5938"/><line style="stroke:#181818;stroke-width:0.5;stroke-dasharray:5.0,5.0;" x1="43" x2="43" y1="118.5938" y2="925.8516"/></g><g><title>Frontend</title><rect fill="#000000" fill-opacity="0.00000" height="807.2578" width="8" x="359.4722" y="118.5938"/><line style="stroke:#181818;stroke-width:0.5;stroke-dasharray:5.0,5.0;" x1="362.9175" x2="362.9175" y1="118.5938" y2="925.8516"/></g><g><title>Auth Middleware</title><rect fill="#000000" fill-opacity="0.00000" height="807.2578" width="8" x="473.98" y="118.5938"/><line style="stroke:#181818;stroke-width:0.5;stroke-dasharray:5.0,5.0;" x1="477.0269" x2="477.0269" y1="118.5938" y2="925.8516"/></g><g><title>Refund Controller</title><rect fill="#000000" fill-opacity="0.00000" height="807.2578" width="8" x="626.7676" y="118.5938"/><line style="stroke:#181818;stroke-width:0.5;stroke-dasharray:5.0,5.0;" x1="630.0049" x2="630.0049" y1="118.5938" y2="925.8516"/></g><g><title>Sale Service</title><rect fill="#000000" fill-opacity="0.00000" height="807.2578" width="8" x="895.1904" y="118.5938"/><line style="stroke:#181818;stroke-width:0.5;stroke-dasharray:5.0,5.0;" x1="899.1104" x2="899.1104" y1="118.5938" y2="925.8516"/></g><g><title>Prisma Client</title><rect fill="#000000" fill-opacity="0.00000" height="807.2578" width="8" x="1095.1475" y="118.5938"/><line style="stroke:#181818;stroke-width:0.5;stroke-dasharray:5.0,5.0;" x1="1098.8579" x2="1098.8579" y1="118.5938" y2="925.8516"/></g><g><title>Cache Service</title><rect fill="#000000" fill-opacity="0.00000" height="807.2578" width="8" x="1215.3018" y="118.5938"/><line style="stroke:#181818;stroke-width:0.5;stroke-dasharray:5.0,5.0;" x1="1218.437" x2="1218.437" y1="118.5938" y2="925.8516"/></g><g><title>Database</title><rect fill="#000000" fill-opacity="0.00000" height="807.2578" width="8" x="1435.6641" y="118.5938"/><line style="stroke:#181818;stroke-width:0.5;stroke-dasharray:5.0,5.0;" x1="1439.2637" x2="1439.2637" y1="118.5938" y2="925.8516"/></g><g class="participant participant-head" data-participant="Client"><text fill="#000000" font-family="sans-serif" font-size="14" lengthAdjust="spacing" textLength="40.5303" x="20" y="115.292">Client</text><ellipse cx="43.2651" cy="50.7969" fill="#E2E2F0" rx="8" ry="8" style="stroke:#181818;stroke-width:0.5;"/><path d="M43.2651,58.7969 L43.2651,85.7969 M30.2651,66.7969 L56.2651,66.7969 M43.2651,85.7969 L30.2651,100.7969 M43.2651,85.7969 L56.2651,100.7969" fill="none" style="stroke:#181818;stroke-width:0.5;"/></g><g class="participant participant-tail" data-participant="Client"><text fill="#000000" font-family="sans-serif" font-size="14" lengthAdjust="spacing" textLength="40.5303" x="20" y="937.8467">Client</text><ellipse cx="43.2651" cy="949.6484" fill="#E2E2F0" rx="8" ry="8" style="stroke:#181818;stroke-width:0.5;"/><path d="M43.2651,957.6484 L43.2651,984.6484 M30.2651,965.6484 L56.2651,965.6484 M43.2651,984.6484 L30.2651,999.6484 M43.2651,984.6484 L56.2651,999.6484" fill="none" style="stroke:#181818;stroke-width:0.5;"/></g><g class="participant participant-head" data-participant="UI"><rect fill="#E2E2F0" height="30.2969" rx="2.5" ry="2.5" style="stroke:#181818;stroke-width:0.5;" width="77.1094" x="324.9175" y="87.2969"/><text fill="#000000" font-family="sans-serif" font-size="14" lengthAdjust="spacing" textLength="63.1094" x="331.9175" y="107.292">Frontend</text></g><g class="participant participant-tail" data-participant="UI"><rect fill="#E2E2F0" height="30.2969" rx="2.5" ry="2.5" style="stroke:#181818;stroke-width:0.5;" width="77.1094" x="324.9175" y="924.8516"/><text fill="#000000" font-family="sans-serif" font-size="14" lengthAdjust="spacing" textLength="63.1094" x="331.9175" y="944.8467">Frontend</text></g><g class="participant participant-head" data-participant="Auth"><rect fill="#E2E2F0" height="30.2969" rx="2.5" ry="2.5" style="stroke:#181818;stroke-width:0.5;" width="131.9063" x="412.0269" y="87.2969"/><text fill="#000000" font-family="sans-serif" font-size="14" lengthAdjust="spacing" textLength="117.9063" x="419.0269" y="107.292">Auth Middleware</text></g><g class="participant participant-tail" data-participant="Auth"><rect fill="#E2E2F0" height="30.2969" rx="2.5" ry="2.5" style="stroke:#181818;stroke-width:0.5;" width="131.9063" x="412.0269" y="924.8516"/><text fill="#000000" font-family="sans-serif" font-size="14" lengthAdjust="spacing" textLength="117.9063" x="419.0269" y="944.8467">Auth Middleware</text></g><g class="participant participant-head" data-participant="RefundCtrl"><rect fill="#E2E2F0" height="30.2969" rx="2.5" ry="2.5" style="stroke:#181818;stroke-width:0.5;" width="137.5254" x="562.0049" y="87.2969"/><text fill="#000000" font-family="sans-serif" font-size="14" lengthAdjust="spacing" textLength="123.5254" x="569.0049" y="107.292">Refund Controller</text></g><g class="participant participant-tail" data-participant="RefundCtrl"><rect fill="#E2E2F0" height="30.2969" rx="2.5" ry="2.5" style="stroke:#181818;stroke-width:0.5;" width="137.5254" x="562.0049" y="924.8516"/><text fill="#000000" font-family="sans-serif" font-size="14" lengthAdjust="spacing" textLength="123.5254" x="569.0049" y="944.8467">Refund Controller</text></g><g class="participant participant-head" data-participant="SaleService"><rect fill="#E2E2F0" height="30.2969" rx="2.5" ry="2.5" style="stroke:#181818;stroke-width:0.5;" width="100.1602" x="849.1104" y="87.2969"/><text fill="#000000" font-family="sans-serif" font-size="14" lengthAdjust="spacing" textLength="86.1602" x="856.1104" y="107.292">Sale Service</text></g><g class="participant participant-tail" data-participant="SaleService"><rect fill="#E2E2F0" height="30.2969" rx="2.5" ry="2.5" style="stroke:#181818;stroke-width:0.5;" width="100.1602" x="849.1104" y="924.8516"/><text fill="#000000" font-family="sans-serif" font-size="14" lengthAdjust="spacing" textLength="86.1602" x="856.1104" y="944.8467">Sale Service</text></g><g class="participant participant-head" data-participant="Prisma"><rect fill="#E2E2F0" height="30.2969" rx="2.5" ry="2.5" style="stroke:#181818;stroke-width:0.5;" width="106.5791" x="1045.8579" y="87.2969"/><text fill="#000000" font-family="sans-serif" font-size="14" lengthAdjust="spacing" textLength="92.5791" x="1052.8579" y="107.292">Prisma Client</text></g><g class="participant participant-tail" data-participant="Prisma"><rect fill="#E2E2F0" height="30.2969" rx="2.5" ry="2.5" style="stroke:#181818;stroke-width:0.5;" width="106.5791" x="1045.8579" y="924.8516"/><text fill="#000000" font-family="sans-serif" font-size="14" lengthAdjust="spacing" textLength="92.5791" x="1052.8579" y="944.8467">Prisma Client</text></g><g class="participant participant-head" data-participant="Cache"><rect fill="#E2E2F0" height="30.2969" rx="2.5" ry="2.5" style="stroke:#181818;stroke-width:0.5;" width="113.7295" x="1162.437" y="87.2969"/><text fill="#000000" font-family="sans-serif" font-size="14" lengthAdjust="spacing" textLength="99.7295" x="1169.437" y="107.292">Cache Service</text></g><g class="participant participant-tail" data-participant="Cache"><rect fill="#E2E2F0" height="30.2969" rx="2.5" ry="2.5" style="stroke:#181818;stroke-width:0.5;" width="113.7295" x="1162.437" y="924.8516"/><text fill="#000000" font-family="sans-serif" font-size="14" lengthAdjust="spacing" textLength="99.7295" x="1169.437" y="944.8467">Cache Service</text></g><g class="participant participant-head" data-participant="DB"><rect fill="#E2E2F0" height="30.2969" rx="2.5" ry="2.5" style="stroke:#181818;stroke-width:0.5;" width="80.8008" x="1399.2637" y="87.2969"/><text fill="#000000" font-family="sans-serif" font-size="14" lengthAdjust="spacing" textLength="66.8008" x="1406.2637" y="107.292">Database</text></g><g class="participant participant-tail" data-participant="DB"><rect fill="#E2E2F0" height="30.2969" rx="2.5" ry="2.5" style="stroke:#181818;stroke-width:0.5;" width="80.8008" x="1399.2637" y="924.8516"/><text fill="#000000" font-family="sans-serif" font-size="14" lengthAdjust="spacing" textLength="66.8008" x="1406.2637" y="944.8467">Database</text></g><g class="message" data-participant-1="Client" data-participant-2="UI"><polygon fill="#181818" points="351.4722,145.7266,361.4722,149.7266,351.4722,153.7266,355.4722,149.7266" style="stroke:#181818;stroke-width:1;"/><line style="stroke:#181818;stroke-width:1;" x1="43.2651" x2="357.4722" y1="149.7266" y2="149.7266"/><text fill="#000000" font-family="sans-serif" font-size="13" lengthAdjust="spacing" textLength="214.1382" x="50.2651" y="144.6606">handleRefundRequest(purchase)</text></g><g class="message" data-participant-1="UI" data-participant-2="RefundCtrl"><polygon fill="#181818" points="618.7676,174.8594,628.7676,178.8594,618.7676,182.8594,622.7676,178.8594" style="stroke:#181818;stroke-width:1;"/><line style="stroke:#181818;stroke-width:1;" x1="363.4722" x2="624.7676" y1="178.8594" y2="178.8594"/><text fill="#000000" font-family="sans-serif" font-size="13" lengthAdjust="spacing" textLength="136.7539" x="370.4722" y="173.7935">POST /api/v1/refunds</text></g><g class="message" data-participant-1="RefundCtrl" data-participant-2="Auth"><polygon fill="#181818" points="488.98,203.9922,478.98,207.9922,488.98,211.9922,484.98,207.9922" style="stroke:#181818;stroke-width:1;"/><line style="stroke:#181818;stroke-width:1;" x1="482.98" x2="629.7676" y1="207.9922" y2="207.9922"/><text fill="#000000" font-family="sans-serif" font-size="13" lengthAdjust="spacing" textLength="128.7876" x="494.98" y="202.9263">validateUser(token)</text></g><g class="message" data-participant-1="Auth" data-participant-2="RefundCtrl"><polygon fill="#181818" points="618.7676,233.125,628.7676,237.125,618.7676,241.125,622.7676,237.125" style="stroke:#181818;stroke-width:1;"/><line style="stroke:#181818;stroke-width:1;stroke-dasharray:2.0,2.0;" x1="477.98" x2="624.7676" y1="237.125" y2="237.125"/><text fill="#000000" font-family="sans-serif" font-size="13" lengthAdjust="spacing" textLength="92.936" x="484.98" y="232.0591">user validated</text></g><g class="message" data-participant-1="RefundCtrl" data-participant-2="SaleService"><polygon fill="#181818" points="887.1904,262.2578,897.1904,266.2578,887.1904,270.2578,891.1904,266.2578" style="stroke:#181818;stroke-width:1;"/><line style="stroke:#181818;stroke-width:1;" x1="630.7676" x2="893.1904" y1="266.2578" y2="266.2578"/><text fill="#000000" font-family="sans-serif" font-size="13" lengthAdjust="spacing" textLength="244.4229" x="637.7676" y="261.1919">validateSaleForRefund(saleId, userId)</text></g><g class="message" data-participant-1="SaleService" data-participant-2="Prisma"><polygon fill="#181818" points="1087.1475,291.3906,1097.1475,295.3906,1087.1475,299.3906,1091.1475,295.3906" style="stroke:#181818;stroke-width:1;"/><line style="stroke:#181818;stroke-width:1;" x1="899.1904" x2="1093.1475" y1="295.3906" y2="295.3906"/><text fill="#000000" font-family="sans-serif" font-size="13" lengthAdjust="spacing" textLength="175.957" x="906.1904" y="290.3247">findSaleWithDetails(saleId)</text></g><g class="message" data-participant-1="Prisma" data-participant-2="DB"><polygon fill="#181818" points="1427.6641,320.5234,1437.6641,324.5234,1427.6641,328.5234,1431.6641,324.5234" style="stroke:#181818;stroke-width:1;"/><line style="stroke:#181818;stroke-width:1;" x1="1099.1475" x2="1433.6641" y1="324.5234" y2="324.5234"/><text fill="#000000" font-family="sans-serif" font-size="13" lengthAdjust="spacing" textLength="273.7109" x="1106.1475" y="319.4575">SELECT sale, saleLines WHERE id = saleId</text></g><g class="message" data-participant-1="DB" data-participant-2="Prisma"><polygon fill="#181818" points="1110.1475,349.6563,1100.1475,353.6563,1110.1475,357.6563,1106.1475,353.6563" style="stroke:#181818;stroke-width:1;"/><line style="stroke:#181818;stroke-width:1;stroke-dasharray:2.0,2.0;" x1="1104.1475" x2="1438.6641" y1="353.6563" y2="353.6563"/><text fill="#000000" font-family="sans-serif" font-size="13" lengthAdjust="spacing" textLength="73.7915" x="1116.1475" y="348.5903">sale details</text></g><g class="message" data-participant-1="Prisma" data-participant-2="SaleService"><polygon fill="#181818" points="910.1904,378.7891,900.1904,382.7891,910.1904,386.7891,906.1904,382.7891" style="stroke:#181818;stroke-width:1;"/><line style="stroke:#181818;stroke-width:1;stroke-dasharray:2.0,2.0;" x1="904.1904" x2="1098.1475" y1="382.7891" y2="382.7891"/><text fill="#000000" font-family="sans-serif" font-size="13" lengthAdjust="spacing" textLength="59.7632" x="916.1904" y="377.7231">sale data</text></g><path d="M10,397.7891 L74.4429,397.7891 L74.4429,404.9219 L64.4429,414.9219 L10,414.9219 L10,397.7891" fill="#EEEEEE" style="stroke:#000000;stroke-width:1.5;"/><rect fill="none" height="511.0625" style="stroke:#000000;stroke-width:1.5;" width="1480.0645" x="10" y="397.7891"/><text fill="#000000" font-family="sans-serif" font-size="13" font-weight="bold" lengthAdjust="spacing" textLength="19.4429" x="25" y="410.856">alt</text><text fill="#000000" font-family="sans-serif" font-size="11" font-weight="bold" lengthAdjust="spacing" textLength="204.5796" x="89.4429" y="409.9995">[Sale exists and belongs to user]</text><g class="message" data-participant-1="SaleService" data-participant-2="RefundCtrl"><polygon fill="#181818" points="641.7676,432.0547,631.7676,436.0547,641.7676,440.0547,637.7676,436.0547" style="stroke:#181818;stroke-width:1;"/><line style="stroke:#181818;stroke-width:1;stroke-dasharray:2.0,2.0;" x1="635.7676" x2="898.1904" y1="436.0547" y2="436.0547"/><text fill="#000000" font-family="sans-serif" font-size="13" lengthAdjust="spacing" textLength="130.4063" x="647.7676" y="430.9888">sale valid for refund</text></g><g class="message" data-participant-1="RefundCtrl" data-participant-2="Prisma"><polygon fill="#181818" points="1087.1475,461.1875,1097.1475,465.1875,1087.1475,469.1875,1091.1475,465.1875" style="stroke:#181818;stroke-width:1;"/><line style="stroke:#181818;stroke-width:1;" x1="630.7676" x2="1093.1475" y1="465.1875" y2="465.1875"/><text fill="#000000" font-family="sans-serif" font-size="13" lengthAdjust="spacing" textLength="171.4692" x="637.7676" y="460.1216">createRefund(transaction)</text></g><g class="message" data-participant-1="Prisma" data-participant-2="DB"><polygon fill="#181818" points="1427.6641,490.3203,1437.6641,494.3203,1427.6641,498.3203,1431.6641,494.3203" style="stroke:#181818;stroke-width:1;"/><line style="stroke:#181818;stroke-width:1;" x1="1099.1475" x2="1433.6641" y1="494.3203" y2="494.3203"/><text fill="#000000" font-family="sans-serif" font-size="13" lengthAdjust="spacing" textLength="138.4424" x="1106.1475" y="489.2544">BEGIN TRANSACTION</text></g><g class="message" data-participant-1="Prisma" data-participant-2="DB"><polygon fill="#181818" points="1427.6641,519.4531,1437.6641,523.4531,1427.6641,527.4531,1431.6641,523.4531" style="stroke:#181818;stroke-width:1;"/><line style="stroke:#181818;stroke-width:1;" x1="1099.1475" x2="1433.6641" y1="523.4531" y2="523.4531"/><text fill="#000000" font-family="sans-serif" font-size="13" lengthAdjust="spacing" textLength="133.3325" x="1106.1475" y="518.3872">INSERT INTO Refund</text></g><g class="message" data-participant-1="Prisma" data-participant-2="DB"><polygon fill="#181818" points="1427.6641,548.5859,1437.6641,552.5859,1427.6641,556.5859,1431.6641,552.5859" style="stroke:#181818;stroke-width:1;"/><line style="stroke:#181818;stroke-width:1;" x1="1099.1475" x2="1433.6641" y1="552.5859" y2="552.5859"/><text fill="#000000" font-family="sans-serif" font-size="13" lengthAdjust="spacing" textLength="210.8438" x="1106.1475" y="547.52">INSERT INTO RefundLine (items)</text></g><g class="message" data-participant-1="Prisma" data-participant-2="DB"><polygon fill="#181818" points="1427.6641,577.7188,1437.6641,581.7188,1427.6641,585.7188,1431.6641,581.7188" style="stroke:#181818;stroke-width:1;"/><line style="stroke:#181818;stroke-width:1;" x1="1099.1475" x2="1433.6641" y1="581.7188" y2="581.7188"/><text fill="#000000" font-family="sans-serif" font-size="13" lengthAdjust="spacing" textLength="242.1948" x="1106.1475" y="576.6528">UPDATE Sale SET status = 'refunded'</text></g><g class="message" data-participant-1="Prisma" data-participant-2="DB"><polygon fill="#181818" points="1427.6641,606.8516,1437.6641,610.8516,1427.6641,614.8516,1431.6641,610.8516" style="stroke:#181818;stroke-width:1;"/><line style="stroke:#181818;stroke-width:1;" x1="1099.1475" x2="1433.6641" y1="610.8516" y2="610.8516"/><text fill="#000000" font-family="sans-serif" font-size="13" lengthAdjust="spacing" textLength="230.896" x="1106.1475" y="605.7856">UPDATE Stock (increase quantities)</text></g><g class="message" data-participant-1="DB" data-participant-2="Prisma"><polygon fill="#181818" points="1110.1475,635.9844,1100.1475,639.9844,1110.1475,643.9844,1106.1475,639.9844" style="stroke:#181818;stroke-width:1;"/><line style="stroke:#181818;stroke-width:1;stroke-dasharray:2.0,2.0;" x1="1104.1475" x2="1438.6641" y1="639.9844" y2="639.9844"/><text fill="#000000" font-family="sans-serif" font-size="13" lengthAdjust="spacing" textLength="118.2886" x="1116.1475" y="634.9185">COMMIT SUCCESS</text></g><g class="message" data-participant-1="Prisma" data-participant-2="RefundCtrl"><polygon fill="#181818" points="641.7676,665.1172,631.7676,669.1172,641.7676,673.1172,637.7676,669.1172" style="stroke:#181818;stroke-width:1;"/><line style="stroke:#181818;stroke-width:1;stroke-dasharray:2.0,2.0;" x1="635.7676" x2="1098.1475" y1="669.1172" y2="669.1172"/><text fill="#000000" font-family="sans-serif" font-size="13" lengthAdjust="spacing" textLength="96.5859" x="647.7676" y="664.0513">refund created</text></g><g class="message" data-participant-1="RefundCtrl" data-participant-2="Cache"><polygon fill="#181818" points="1207.3018,694.25,1217.3018,698.25,1207.3018,702.25,1211.3018,698.25" style="stroke:#181818;stroke-width:1;"/><line style="stroke:#181818;stroke-width:1;" x1="630.7676" x2="1213.3018" y1="698.25" y2="698.25"/><text fill="#000000" font-family="sans-serif" font-size="13" lengthAdjust="spacing" textLength="164.5757" x="637.7676" y="693.1841">invalidateRelatedCache()</text></g><g class="message" data-participant-1="Cache" data-participant-2="Cache"><line style="stroke:#181818;stroke-width:1;" x1="1219.3018" x2="1261.3018" y1="727.3828" y2="727.3828"/><line style="stroke:#181818;stroke-width:1;" x1="1261.3018" x2="1261.3018" y1="727.3828" y2="740.3828"/><line style="stroke:#181818;stroke-width:1;" x1="1220.3018" x2="1261.3018" y1="740.3828" y2="740.3828"/><polygon fill="#181818" points="1230.3018,736.3828,1220.3018,740.3828,1230.3018,744.3828,1226.3018,740.3828" style="stroke:#181818;stroke-width:1;"/><text fill="#000000" font-family="sans-serif" font-size="13" lengthAdjust="spacing" textLength="206.3623" x="1226.3018" y="722.3169">clear sale cache, product cache</text></g><g class="message" data-participant-1="RefundCtrl" data-participant-2="UI"><polygon fill="#181818" points="374.4722,765.5156,364.4722,769.5156,374.4722,773.5156,370.4722,769.5156" style="stroke:#181818;stroke-width:1;"/><line style="stroke:#181818;stroke-width:1;stroke-dasharray:2.0,2.0;" x1="368.4722" x2="629.7676" y1="769.5156" y2="769.5156"/><text fill="#000000" font-family="sans-serif" font-size="13" lengthAdjust="spacing" textLength="194.0796" x="380.4722" y="764.4497">201 Created {refundId, total}</text></g><g class="message" data-participant-1="UI" data-participant-2="Client"><polygon fill="#181818" points="54.2651,794.6484,44.2651,798.6484,54.2651,802.6484,50.2651,798.6484" style="stroke:#181818;stroke-width:1;"/><line style="stroke:#181818;stroke-width:1;stroke-dasharray:2.0,2.0;" x1="48.2651" x2="362.4722" y1="798.6484" y2="798.6484"/><text fill="#000000" font-family="sans-serif" font-size="13" lengthAdjust="spacing" textLength="242.6074" x="60.2651" y="793.5825">"Remboursement trait&#233; avec succ&#232;s"</text></g><line style="stroke:#000000;stroke-width:1;stroke-dasharray:2.0,2.0;" x1="10" x2="1490.0645" y1="807.6484" y2="807.6484"/><text fill="#000000" font-family="sans-serif" font-size="11" font-weight="bold" lengthAdjust="spacing" textLength="218.0396" x="15" y="817.8589">[Sale invalid or not owned by user]</text><g class="message" data-participant-1="SaleService" data-participant-2="RefundCtrl"><polygon fill="#181818" points="641.7676,838.5859,631.7676,842.5859,641.7676,846.5859,637.7676,842.5859" style="stroke:#181818;stroke-width:1;"/><line style="stroke:#181818;stroke-width:1;stroke-dasharray:2.0,2.0;" x1="635.7676" x2="898.1904" y1="842.5859" y2="842.5859"/><text fill="#000000" font-family="sans-serif" font-size="13" lengthAdjust="spacing" textLength="113.9658" x="647.7676" y="837.52">error: invalid sale</text></g><g class="message" data-participant-1="RefundCtrl" data-participant-2="UI"><polygon fill="#181818" points="374.4722,867.7188,364.4722,871.7188,374.4722,875.7188,370.4722,871.7188" style="stroke:#181818;stroke-width:1;"/><line style="stroke:#181818;stroke-width:1;stroke-dasharray:2.0,2.0;" x1="368.4722" x2="629.7676" y1="871.7188" y2="871.7188"/><text fill="#000000" font-family="sans-serif" font-size="13" lengthAdjust="spacing" textLength="111.6045" x="380.4722" y="866.6528">400 Bad Request</text></g><g class="message" data-participant-1="UI" data-participant-2="Client"><polygon fill="#181818" points="54.2651,896.8516,44.2651,900.8516,54.2651,904.8516,50.2651,900.8516" style="stroke:#181818;stroke-width:1;"/><line style="stroke:#181818;stroke-width:1;stroke-dasharray:2.0,2.0;" x1="48.2651" x2="362.4722" y1="900.8516" y2="900.8516"/><text fill="#000000" font-family="sans-serif" font-size="13" lengthAdjust="spacing" textLength="296.207" x="60.2651" y="895.7856">"Erreur: Vente non trouv&#233;e ou non autoris&#233;e"</text></g><!--SRC=[ZLJDRjim3BxxAOXUcW0DsWux1TY0n74t0srIsCvwLYns4Uf8gNwo3SFUPtsEljWeoStif0LwiI7ouqVoeoWhR8DGpD8bZA30pKevRN23qi9MA-w4JH9MMwKXRGHPaotJLjHYomXnSgMLj2Zv2J03oxpld3YxXXl1UOC_cCQ0yRO-gi1x9pcaHAHLqw0Ek6XDhMxww99HjINgdQWZeJUqvpxoLWkpOMtL0HejVLJAwdMVC5Zwe1cpRCLCzC-cIH99OVIPUeOnh9ca7cF91JuwD7QmTRfUKymm8GW1_pT40RUBie9pjXNdkyjp7JmcwI087yGRmuurWZEBIuDwODK3oc4INAD3JaU8FPmd1tGTcJgitdgbT8GE39roVXQOSZvCkZ54qGewXdiXkVVT2RkUeMMYCMtiC6b119zD2LfcrrbQWVUUXU-ra6ZWxcjMP20uV88Oc11wrCtXpS0Z-Pxqg8-8ekdG7MriS0B-5COQe9702XiblnkmAlIKG2_yIC705gI1UxhlSIuKr5ToNsAjaIHijREQIKDx8XGD2E10Xcds9Pz3LKpcvIIjyiNy69BFowoew5SjseJlmNWvOI0iRimhQPUtiqcLHLdAZCPWcNM6H3-DlI4_VJl8glg1gALlqo0yEbe5OGM6H8VZIXStDta5vJ9DixBia1vg71EtslaMZ_ID6pa68LzkQO6D1mV7m6UFa0wsRf3fEB_QcyxYsrNRU3nEyxAv7ouk8OsrmEzOczy0gonh_b2CtrsV9-xxsBzMtHUIfYxiynEm7TPWN5q__pKd2JQaLn2zxG7eDabbGVsGb6Vrwrst4RLMUYz3QEwD9ZvUNC2KSMYVdjVAphH6HspVw8nKYwJIbTizFo4e5yxCqHil35ce0Sd_0G00]--></g></svg>